<svg width="1920" height="1080" viewBox="0 0 1920 1080" fill="none" xmlns="http://www.w3.org/2000/svg">
<g clip-path="url(#clip0_94_1449)">
<rect width="1920" height="1080" fill="#09122F"/>
<rect width="1920" height="80" fill="white"/>
<g clip-path="url(#clip1_94_1449)">
<path d="M63.5 26V44.5L53.69 50.17V59.67L39.25 68L15 54V26L39.25 12L63.5 26Z" fill="#0073FF"/>
<path d="M15 26V54L39.25 68V40L15 26Z" fill="#005CCC"/>
<path d="M39.25 68V40L63.5 26V44.5L53.69 50.17V59.67L39.25 68Z" fill="#004599"/>
<path d="M59.26 51.2894L63.5 48.8594V53.9994L59.26 56.4194V51.2894Z" fill="#004599"/>
<path d="M59.26 57.9902V62.0002L56.05 63.8602V59.8502L59.26 57.9902Z" fill="#004599"/>
</g>
<g clip-path="url(#clip2_94_1449)">
<path d="M102 29.66C102 36.75 97 41.31 89.25 41.31H80V18H89.29C97.08 18 102 22.6 102 29.66ZM94.51 29.66C94.51 26.86 92.71 24.86 89.25 24.86H87.45V34.45H89.25C92.75 34.45 94.55 32.49 94.55 29.66H94.51Z" fill="black"/>
<path d="M117.52 37.71H110.93L109.93 41.31H101.88L109.67 18H118.79L126.58 41.3H118.52L117.52 37.71ZM116.09 32.52L114.23 25.76L112.36 32.52H116.09Z" fill="black"/>
<path d="M148.72 36.8202L151 39.0502L147.44 42.6102L145 40.1402C143.081 41.1918 140.928 41.7422 138.74 41.7402C137.131 41.7889 135.529 41.5113 134.03 40.9241C132.532 40.3368 131.167 39.4521 130.02 38.3233C128.872 37.1944 127.965 35.8449 127.353 34.356C126.742 32.8671 126.438 31.2697 126.46 29.6602C126.551 26.4627 127.886 23.4267 130.18 21.1973C132.474 18.9679 135.546 17.7207 138.745 17.7207C141.944 17.7207 145.017 18.9679 147.311 21.1973C149.605 23.4267 150.939 26.4627 151.03 29.6602C151.036 32.231 150.228 34.7377 148.72 36.8202ZM139.27 34.4502L137.4 32.5502L141 29.0002L143.23 31.2702C143.41 30.7456 143.501 30.1947 143.5 29.6402C143.444 28.4011 142.912 27.2315 142.015 26.3747C141.118 25.5178 139.925 25.0397 138.685 25.0397C137.445 25.0397 136.252 25.5178 135.355 26.3747C134.459 27.2315 133.927 28.4011 133.87 29.6402C133.847 30.2787 133.957 30.9151 134.192 31.5091C134.428 32.1032 134.783 32.6422 135.237 33.0921C135.691 33.542 136.233 33.8932 136.829 34.1235C137.425 34.3537 138.062 34.4582 138.7 34.4302L139.27 34.4502Z" fill="black"/>
<path d="M169.9 35.05V41.31H153.49V18H169.6V24.25H161V26.85H168.56V32.24H161V35.04L169.9 35.05Z" fill="black"/>
<path d="M200 18V41.3H192.51V29.06L187.32 38.06H185.25L180.06 29.06V41.31H172.57V18H180.62L186.28 27.92L191.94 18H200Z" fill="black"/>
<path d="M93.56 57.0003C93.56 59.7203 91.56 62.3903 87.04 62.3903C83.77 62.3903 80.85 61.0503 80.04 58.1503L83.31 57.1503C83.56 58.1503 84.61 59.4503 87.06 59.4503C88.8 59.4503 90.2 58.7803 90.2 57.2803C90.2 55.5303 88.2 55.4103 85.46 54.7303C81.94 53.8603 80.76 52.0903 80.76 49.6603C80.76 46.3703 83.29 44.3203 86.93 44.3203C89.85 44.3203 92.15 45.7703 92.93 48.4403L89.63 49.2403C89.4712 48.624 89.0983 48.0844 88.5779 47.7179C88.0576 47.3515 87.4238 47.1822 86.79 47.2403C85.34 47.2403 84.14 47.9903 84.14 49.3903C84.14 51.3903 86.36 51.6403 87.99 52.0103C92.06 53.0003 93.56 54.1803 93.56 57.0003Z" fill="black"/>
<path d="M99.6499 52.3098V56.9198C99.6499 58.3698 99.8499 59.2198 101.6 59.2198C101.85 59.2347 102.1 59.2347 102.35 59.2198V62.1198C101.922 62.2485 101.476 62.3059 101.03 62.2898C97.7799 62.2898 96.4799 60.1198 96.4799 57.4998V52.3098H94.6799V49.4098H96.4799V46.7598H99.6499V49.4098H102.35V52.3098H99.6499Z" fill="black"/>
<path d="M116.46 49.4102V62.0702H113.29V60.5202C112.895 61.1257 112.349 61.6172 111.705 61.9453C111.061 62.2735 110.342 62.4269 109.62 62.3902C106.42 62.3902 104.97 59.8002 104.97 57.1202V49.4102H108.14V56.4102C108.14 58.0302 108.82 59.2602 110.59 59.2602C110.962 59.2779 111.334 59.2151 111.68 59.076C112.026 58.937 112.337 58.7249 112.594 58.4544C112.85 58.1838 113.045 57.8611 113.165 57.5083C113.285 57.1555 113.328 56.7809 113.29 56.4102V49.4102H116.46Z" fill="black"/>
<path d="M132.09 44.5898V62.0698H128.92V60.5998C128.439 61.19 127.827 61.6593 127.133 61.9702C126.438 62.281 125.68 62.4248 124.92 62.3898C121 62.3898 118.76 59.0698 118.76 55.7498C118.76 52.4298 121 49.1098 124.92 49.1098C125.682 49.0705 126.442 49.2132 127.138 49.5262C127.833 49.8392 128.444 50.3136 128.92 50.9098V44.5898H132.09ZM128.77 55.7498C128.77 55.302 128.682 54.8586 128.51 54.4449C128.339 54.0312 128.088 53.6553 127.771 53.3386C127.455 53.022 127.079 52.7708 126.665 52.5994C126.251 52.428 125.808 52.3398 125.36 52.3398C124.912 52.3398 124.469 52.428 124.055 52.5994C123.641 52.7708 123.265 53.022 122.949 53.3386C122.632 53.6553 122.381 54.0312 122.21 54.4449C122.038 54.8586 121.95 55.302 121.95 55.7498C121.914 56.2196 121.975 56.6917 122.13 57.1366C122.286 57.5815 122.531 57.9896 122.851 58.3353C123.171 58.6809 123.559 58.9567 123.991 59.1453C124.423 59.3338 124.889 59.4312 125.36 59.4312C125.831 59.4312 126.297 59.3338 126.729 59.1453C127.161 58.9567 127.549 58.6809 127.869 58.3353C128.189 57.9896 128.434 57.5815 128.59 57.1366C128.745 56.6917 128.806 56.2196 128.77 55.7498Z" fill="black"/>
<path d="M135 45.8596C135.002 45.5249 135.103 45.1984 135.291 44.9214C135.479 44.6443 135.745 44.4293 136.055 44.3036C136.365 44.1778 136.706 44.1469 137.033 44.2149C137.361 44.2829 137.661 44.4466 137.896 44.6854C138.13 44.9241 138.288 45.2271 138.351 45.556C138.413 45.8848 138.376 46.2247 138.245 46.5326C138.113 46.8404 137.894 47.1024 137.613 47.2852C137.333 47.468 137.005 47.5635 136.67 47.5596C136.448 47.5596 136.229 47.5154 136.024 47.4296C135.819 47.3438 135.634 47.2181 135.478 47.0599C135.323 46.9016 135.201 46.714 135.118 46.5079C135.036 46.3018 134.996 46.0814 135 45.8596ZM135.1 49.4096H138.27V62.0696H135.1V49.4096Z" fill="black"/>
<path d="M153.87 55.7505C153.878 57.0729 153.493 58.3679 152.765 59.4715C152.036 60.575 150.996 61.4374 149.777 61.9495C148.557 62.4615 147.213 62.6001 145.915 62.3477C144.617 62.0953 143.423 61.4632 142.485 60.5316C141.546 59.6 140.905 58.4108 140.643 57.1146C140.381 55.8184 140.509 54.4735 141.012 53.2504C141.515 52.0273 142.369 50.981 143.468 50.244C144.566 49.507 145.858 49.1125 147.18 49.1105C148.059 49.0944 148.932 49.2547 149.748 49.5821C150.563 49.9095 151.305 50.3971 151.929 51.0163C152.553 51.6354 153.046 52.3734 153.379 53.1866C153.713 53.9998 153.88 54.8716 153.87 55.7505ZM150.62 55.7505C150.589 55.0778 150.361 54.4291 149.964 53.8849C149.568 53.3406 149.02 52.9247 148.389 52.6887C147.759 52.4527 147.073 52.407 146.416 52.5572C145.76 52.7075 145.162 53.0471 144.697 53.5339C144.232 54.0208 143.919 54.6335 143.799 55.296C143.679 55.9586 143.756 56.6419 144.02 57.2612C144.285 57.8805 144.725 58.4086 145.287 58.78C145.848 59.1514 146.507 59.3497 147.18 59.3505C147.648 59.3583 148.112 59.2692 148.543 59.089C148.975 58.9087 149.365 58.6411 149.688 58.303C150.011 57.9648 150.26 57.5635 150.421 57.1242C150.581 56.685 150.649 56.2172 150.62 55.7505Z" fill="black"/>
<path d="M165.8 58.1701C165.8 60.6701 163.98 62.3901 160.44 62.3901C158.01 62.3901 155.57 61.3901 154.99 59.3001L157.99 58.3501C158.09 58.8701 158.59 59.7201 160.44 59.7201C161.76 59.7201 162.51 59.2501 162.51 58.4001C162.51 57.2001 160.69 57.2501 159.19 56.9201C156.74 56.4301 155.49 55.2501 155.49 53.0801C155.49 50.6801 157.49 49.0801 160.49 49.0801C162.66 49.0801 164.81 50.1501 165.34 52.3501L162.46 53.0501C162.337 52.63 162.068 52.2679 161.701 52.0294C161.334 51.7909 160.894 51.6918 160.46 51.7501C159.54 51.7501 158.59 52.1001 158.59 53.0501C158.59 54.1701 160.29 54.2501 161.29 54.4701C164.43 55.1801 165.8 56.0001 165.8 58.1701Z" fill="black"/>
</g>
<path d="M1364.49 46V33.4H1369.95C1371.08 33.4 1372.05 33.586 1372.86 33.958C1373.68 34.318 1374.31 34.84 1374.75 35.524C1375.2 36.208 1375.42 37.024 1375.42 37.972C1375.42 38.908 1375.2 39.718 1374.75 40.402C1374.31 41.086 1373.68 41.614 1372.86 41.986C1372.05 42.346 1371.08 42.526 1369.95 42.526H1366.11L1367.41 41.212V46H1364.49ZM1367.41 41.536L1366.11 40.15H1369.79C1370.69 40.15 1371.36 39.958 1371.8 39.574C1372.25 39.19 1372.47 38.656 1372.47 37.972C1372.47 37.276 1372.25 36.736 1371.8 36.352C1371.36 35.968 1370.69 35.776 1369.79 35.776H1366.11L1367.41 34.39V41.536ZM1377.29 46V36.316H1379.97V39.052L1379.59 38.26C1379.88 37.576 1380.34 37.06 1380.98 36.712C1381.61 36.352 1382.39 36.172 1383.3 36.172V38.764C1383.18 38.752 1383.07 38.746 1382.97 38.746C1382.88 38.734 1382.78 38.728 1382.67 38.728C1381.9 38.728 1381.28 38.95 1380.8 39.394C1380.33 39.826 1380.09 40.504 1380.09 41.428V46H1377.29ZM1389.51 46.144C1388.47 46.144 1387.56 45.928 1386.75 45.496C1385.96 45.064 1385.33 44.476 1384.86 43.732C1384.41 42.976 1384.18 42.118 1384.18 41.158C1384.18 40.186 1384.41 39.328 1384.86 38.584C1385.33 37.828 1385.96 37.24 1386.75 36.82C1387.56 36.388 1388.47 36.172 1389.51 36.172C1390.53 36.172 1391.44 36.388 1392.24 36.82C1393.05 37.24 1393.68 37.822 1394.13 38.566C1394.59 39.31 1394.82 40.174 1394.82 41.158C1394.82 42.118 1394.59 42.976 1394.13 43.732C1393.68 44.476 1393.05 45.064 1392.24 45.496C1391.44 45.928 1390.53 46.144 1389.51 46.144ZM1389.51 43.84C1389.97 43.84 1390.39 43.732 1390.77 43.516C1391.14 43.3 1391.43 42.994 1391.65 42.598C1391.86 42.19 1391.97 41.71 1391.97 41.158C1391.97 40.594 1391.86 40.114 1391.65 39.718C1391.43 39.322 1391.14 39.016 1390.77 38.8C1390.39 38.584 1389.97 38.476 1389.51 38.476C1389.04 38.476 1388.62 38.584 1388.25 38.8C1387.87 39.016 1387.57 39.322 1387.35 39.718C1387.13 40.114 1387.02 40.594 1387.02 41.158C1387.02 41.71 1387.13 42.19 1387.35 42.598C1387.57 42.994 1387.87 43.3 1388.25 43.516C1388.62 43.732 1389.04 43.84 1389.51 43.84ZM1395.97 49.636C1395.54 49.636 1395.13 49.588 1394.73 49.492C1394.33 49.408 1394 49.276 1393.72 49.096L1394.48 47.062C1394.8 47.29 1395.2 47.404 1395.67 47.404C1396.01 47.404 1396.29 47.284 1396.49 47.044C1396.71 46.816 1396.82 46.468 1396.82 46V36.316H1399.63V45.982C1399.63 47.098 1399.31 47.986 1398.67 48.646C1398.04 49.306 1397.14 49.636 1395.97 49.636ZM1398.22 34.966C1397.71 34.966 1397.29 34.816 1396.96 34.516C1396.64 34.216 1396.48 33.844 1396.48 33.4C1396.48 32.956 1396.64 32.584 1396.96 32.284C1397.29 31.984 1397.71 31.834 1398.22 31.834C1398.74 31.834 1399.16 31.978 1399.48 32.266C1399.81 32.542 1399.97 32.902 1399.97 33.346C1399.97 33.814 1399.81 34.204 1399.48 34.516C1399.17 34.816 1398.75 34.966 1398.22 34.966ZM1407.02 46.144C1405.91 46.144 1404.94 45.928 1404.1 45.496C1403.27 45.064 1402.63 44.476 1402.18 43.732C1401.72 42.976 1401.49 42.118 1401.49 41.158C1401.49 40.186 1401.71 39.328 1402.16 38.584C1402.61 37.828 1403.23 37.24 1404.01 36.82C1404.79 36.388 1405.67 36.172 1406.66 36.172C1407.61 36.172 1408.46 36.376 1409.21 36.784C1409.98 37.18 1410.59 37.756 1411.03 38.512C1411.48 39.256 1411.7 40.15 1411.7 41.194C1411.7 41.302 1411.69 41.428 1411.68 41.572C1411.67 41.704 1411.66 41.83 1411.64 41.95H1403.78V40.312H1410.17L1409.09 40.798C1409.09 40.294 1408.99 39.856 1408.78 39.484C1408.58 39.112 1408.3 38.824 1407.94 38.62C1407.58 38.404 1407.16 38.296 1406.68 38.296C1406.2 38.296 1405.77 38.404 1405.4 38.62C1405.04 38.824 1404.76 39.118 1404.55 39.502C1404.35 39.874 1404.25 40.318 1404.25 40.834V41.266C1404.25 41.794 1404.36 42.262 1404.59 42.67C1404.83 43.066 1405.16 43.372 1405.58 43.588C1406.01 43.792 1406.51 43.894 1407.09 43.894C1407.61 43.894 1408.06 43.816 1408.44 43.66C1408.84 43.504 1409.2 43.27 1409.52 42.958L1411.01 44.578C1410.57 45.082 1410.01 45.472 1409.34 45.748C1408.67 46.012 1407.89 46.144 1407.02 46.144ZM1418.25 46.144C1417.2 46.144 1416.27 45.934 1415.46 45.514C1414.64 45.082 1414 44.488 1413.53 43.732C1413.08 42.976 1412.85 42.118 1412.85 41.158C1412.85 40.186 1413.08 39.328 1413.53 38.584C1414 37.828 1414.64 37.24 1415.46 36.82C1416.27 36.388 1417.2 36.172 1418.25 36.172C1419.27 36.172 1420.16 36.388 1420.91 36.82C1421.67 37.24 1422.23 37.846 1422.59 38.638L1420.41 39.808C1420.16 39.352 1419.84 39.016 1419.45 38.8C1419.08 38.584 1418.67 38.476 1418.23 38.476C1417.75 38.476 1417.32 38.584 1416.93 38.8C1416.55 39.016 1416.24 39.322 1416.02 39.718C1415.8 40.114 1415.69 40.594 1415.69 41.158C1415.69 41.722 1415.8 42.202 1416.02 42.598C1416.24 42.994 1416.55 43.3 1416.93 43.516C1417.32 43.732 1417.75 43.84 1418.23 43.84C1418.67 43.84 1419.08 43.738 1419.45 43.534C1419.84 43.318 1420.16 42.976 1420.41 42.508L1422.59 43.696C1422.23 44.476 1421.67 45.082 1420.91 45.514C1420.16 45.934 1419.27 46.144 1418.25 46.144ZM1428.3 46.144C1427.16 46.144 1426.27 45.856 1425.64 45.28C1425 44.692 1424.68 43.822 1424.68 42.67V34.174H1427.49V42.634C1427.49 43.042 1427.6 43.36 1427.82 43.588C1428.03 43.804 1428.33 43.912 1428.7 43.912C1429.14 43.912 1429.52 43.792 1429.83 43.552L1430.59 45.532C1430.3 45.736 1429.95 45.892 1429.54 46C1429.15 46.096 1428.73 46.144 1428.3 46.144ZM1423.19 38.692V36.532H1429.9V38.692H1423.19ZM1435.42 46.144C1434.6 46.144 1433.8 46.048 1433.03 45.856C1432.27 45.652 1431.67 45.4 1431.23 45.1L1432.17 43.084C1432.61 43.36 1433.13 43.588 1433.73 43.768C1434.34 43.936 1434.94 44.02 1435.53 44.02C1436.18 44.02 1436.64 43.942 1436.9 43.786C1437.18 43.63 1437.31 43.414 1437.31 43.138C1437.31 42.91 1437.21 42.742 1436.99 42.634C1436.79 42.514 1436.51 42.424 1436.16 42.364C1435.81 42.304 1435.43 42.244 1435.01 42.184C1434.6 42.124 1434.19 42.046 1433.77 41.95C1433.35 41.842 1432.96 41.686 1432.62 41.482C1432.27 41.278 1431.99 41.002 1431.77 40.654C1431.57 40.306 1431.46 39.856 1431.46 39.304C1431.46 38.692 1431.64 38.152 1431.99 37.684C1432.35 37.216 1432.86 36.85 1433.53 36.586C1434.21 36.31 1435.01 36.172 1435.95 36.172C1436.61 36.172 1437.28 36.244 1437.96 36.388C1438.65 36.532 1439.22 36.742 1439.67 37.018L1438.74 39.016C1438.27 38.74 1437.79 38.554 1437.31 38.458C1436.85 38.35 1436.39 38.296 1435.95 38.296C1435.32 38.296 1434.87 38.38 1434.58 38.548C1434.29 38.716 1434.15 38.932 1434.15 39.196C1434.15 39.436 1434.25 39.616 1434.45 39.736C1434.67 39.856 1434.95 39.952 1435.3 40.024C1435.65 40.096 1436.02 40.162 1436.43 40.222C1436.85 40.27 1437.27 40.348 1437.69 40.456C1438.11 40.564 1438.49 40.72 1438.83 40.924C1439.17 41.116 1439.46 41.386 1439.67 41.734C1439.89 42.07 1440 42.514 1440 43.066C1440 43.666 1439.82 44.2 1439.46 44.668C1439.1 45.124 1438.57 45.484 1437.89 45.748C1437.22 46.012 1436.4 46.144 1435.42 46.144Z" fill="black"/>
<path d="M1474.49 46V33.4H1476.91L1484.34 42.472H1483.17V33.4H1486.05V46H1483.66L1476.2 36.928H1477.37V46H1474.49ZM1493.64 46.144C1492.54 46.144 1491.56 45.928 1490.72 45.496C1489.9 45.064 1489.25 44.476 1488.8 43.732C1488.34 42.976 1488.11 42.118 1488.11 41.158C1488.11 40.186 1488.34 39.328 1488.78 38.584C1489.24 37.828 1489.85 37.24 1490.63 36.82C1491.41 36.388 1492.3 36.172 1493.28 36.172C1494.23 36.172 1495.08 36.376 1495.84 36.784C1496.6 37.18 1497.21 37.756 1497.65 38.512C1498.1 39.256 1498.32 40.15 1498.32 41.194C1498.32 41.302 1498.31 41.428 1498.3 41.572C1498.29 41.704 1498.28 41.83 1498.27 41.95H1490.4V40.312H1496.79L1495.71 40.798C1495.71 40.294 1495.61 39.856 1495.4 39.484C1495.2 39.112 1494.92 38.824 1494.56 38.62C1494.2 38.404 1493.78 38.296 1493.3 38.296C1492.82 38.296 1492.39 38.404 1492.02 38.62C1491.66 38.824 1491.38 39.118 1491.17 39.502C1490.97 39.874 1490.87 40.318 1490.87 40.834V41.266C1490.87 41.794 1490.98 42.262 1491.21 42.67C1491.45 43.066 1491.78 43.372 1492.2 43.588C1492.63 43.792 1493.14 43.894 1493.71 43.894C1494.23 43.894 1494.68 43.816 1495.06 43.66C1495.46 43.504 1495.82 43.27 1496.14 42.958L1497.64 44.578C1497.19 45.082 1496.63 45.472 1495.96 45.748C1495.29 46.012 1494.52 46.144 1493.64 46.144ZM1502.23 46L1498.73 36.316H1501.38L1504.28 44.65H1503.02L1506.04 36.316H1508.42L1511.35 44.65H1510.09L1513.08 36.316H1515.56L1512.05 46H1509.34L1506.76 38.854H1507.59L1504.93 46H1502.23ZM1519.99 46.144C1519.16 46.144 1518.36 46.048 1517.59 45.856C1516.84 45.652 1516.24 45.4 1515.79 45.1L1516.73 43.084C1517.17 43.36 1517.7 43.588 1518.3 43.768C1518.91 43.936 1519.51 44.02 1520.1 44.02C1520.74 44.02 1521.2 43.942 1521.46 43.786C1521.74 43.63 1521.88 43.414 1521.88 43.138C1521.88 42.91 1521.77 42.742 1521.55 42.634C1521.35 42.514 1521.07 42.424 1520.73 42.364C1520.38 42.304 1519.99 42.244 1519.57 42.184C1519.17 42.124 1518.75 42.046 1518.33 41.95C1517.91 41.842 1517.53 41.686 1517.18 41.482C1516.83 41.278 1516.55 41.002 1516.33 40.654C1516.13 40.306 1516.03 39.856 1516.03 39.304C1516.03 38.692 1516.2 38.152 1516.55 37.684C1516.91 37.216 1517.43 36.85 1518.1 36.586C1518.77 36.31 1519.57 36.172 1520.51 36.172C1521.17 36.172 1521.84 36.244 1522.53 36.388C1523.21 36.532 1523.78 36.742 1524.24 37.018L1523.3 39.016C1522.83 38.74 1522.36 38.554 1521.88 38.458C1521.41 38.35 1520.95 38.296 1520.51 38.296C1519.89 38.296 1519.43 38.38 1519.14 38.548C1518.85 38.716 1518.71 38.932 1518.71 39.196C1518.71 39.436 1518.81 39.616 1519.02 39.736C1519.23 39.856 1519.51 39.952 1519.86 40.024C1520.21 40.096 1520.59 40.162 1521 40.222C1521.42 40.27 1521.84 40.348 1522.26 40.456C1522.68 40.564 1523.05 40.72 1523.39 40.924C1523.74 41.116 1524.02 41.386 1524.24 41.734C1524.45 42.07 1524.56 42.514 1524.56 43.066C1524.56 43.666 1524.38 44.2 1524.02 44.668C1523.66 45.124 1523.14 45.484 1522.45 45.748C1521.78 46.012 1520.96 46.144 1519.99 46.144Z" fill="black"/>
<path d="M1564.58 46.216C1563.58 46.216 1562.66 46.06 1561.82 45.748C1561 45.424 1560.27 44.968 1559.65 44.38C1559.03 43.792 1558.55 43.102 1558.21 42.31C1557.87 41.518 1557.7 40.648 1557.7 39.7C1557.7 38.752 1557.87 37.882 1558.21 37.09C1558.55 36.298 1559.04 35.608 1559.66 35.02C1560.29 34.432 1561.02 33.982 1561.86 33.67C1562.7 33.346 1563.62 33.184 1564.63 33.184C1565.75 33.184 1566.75 33.37 1567.64 33.742C1568.54 34.114 1569.29 34.654 1569.91 35.362L1568.03 37.09C1567.58 36.61 1567.08 36.256 1566.54 36.028C1566 35.788 1565.41 35.668 1564.78 35.668C1564.16 35.668 1563.61 35.764 1563.1 35.956C1562.6 36.148 1562.16 36.424 1561.79 36.784C1561.43 37.144 1561.15 37.57 1560.94 38.062C1560.75 38.554 1560.65 39.1 1560.65 39.7C1560.65 40.288 1560.75 40.828 1560.94 41.32C1561.15 41.812 1561.43 42.244 1561.79 42.616C1562.16 42.976 1562.59 43.252 1563.08 43.444C1563.59 43.636 1564.14 43.732 1564.74 43.732C1565.32 43.732 1565.87 43.642 1566.41 43.462C1566.97 43.27 1567.5 42.952 1568.02 42.508L1569.67 44.614C1568.99 45.13 1568.19 45.526 1567.28 45.802C1566.38 46.078 1565.48 46.216 1564.58 46.216ZM1567.01 44.236V39.502H1569.67V44.614L1567.01 44.236ZM1576.99 46.144C1575.88 46.144 1574.91 45.928 1574.07 45.496C1573.24 45.064 1572.6 44.476 1572.15 43.732C1571.69 42.976 1571.46 42.118 1571.46 41.158C1571.46 40.186 1571.68 39.328 1572.13 38.584C1572.58 37.828 1573.2 37.24 1573.98 36.82C1574.76 36.388 1575.64 36.172 1576.63 36.172C1577.58 36.172 1578.43 36.376 1579.18 36.784C1579.95 37.18 1580.56 37.756 1581 38.512C1581.45 39.256 1581.67 40.15 1581.67 41.194C1581.67 41.302 1581.66 41.428 1581.65 41.572C1581.64 41.704 1581.63 41.83 1581.61 41.95H1573.75V40.312H1580.14L1579.06 40.798C1579.06 40.294 1578.96 39.856 1578.75 39.484C1578.55 39.112 1578.27 38.824 1577.91 38.62C1577.55 38.404 1577.13 38.296 1576.65 38.296C1576.17 38.296 1575.74 38.404 1575.37 38.62C1575.01 38.824 1574.73 39.118 1574.52 39.502C1574.32 39.874 1574.22 40.318 1574.22 40.834V41.266C1574.22 41.794 1574.33 42.262 1574.56 42.67C1574.8 43.066 1575.13 43.372 1575.55 43.588C1575.98 43.792 1576.48 43.894 1577.06 43.894C1577.58 43.894 1578.03 43.816 1578.41 43.66C1578.81 43.504 1579.17 43.27 1579.49 42.958L1580.98 44.578C1580.54 45.082 1579.98 45.472 1579.31 45.748C1578.64 46.012 1577.86 46.144 1576.99 46.144ZM1589.42 36.172C1590.19 36.172 1590.88 36.328 1591.48 36.64C1592.09 36.94 1592.57 37.408 1592.92 38.044C1593.26 38.668 1593.44 39.472 1593.44 40.456V46H1590.63V40.888C1590.63 40.108 1590.46 39.532 1590.11 39.16C1589.77 38.788 1589.29 38.602 1588.67 38.602C1588.22 38.602 1587.82 38.698 1587.46 38.89C1587.11 39.07 1586.84 39.352 1586.63 39.736C1586.44 40.12 1586.35 40.612 1586.35 41.212V46H1583.54V36.316H1586.22V38.998L1585.72 38.188C1586.06 37.54 1586.56 37.042 1587.21 36.694C1587.86 36.346 1588.6 36.172 1589.42 36.172ZM1600.86 46.144C1599.76 46.144 1598.78 45.928 1597.94 45.496C1597.12 45.064 1596.47 44.476 1596.02 43.732C1595.56 42.976 1595.33 42.118 1595.33 41.158C1595.33 40.186 1595.56 39.328 1596 38.584C1596.46 37.828 1597.07 37.24 1597.85 36.82C1598.63 36.388 1599.52 36.172 1600.5 36.172C1601.45 36.172 1602.3 36.376 1603.06 36.784C1603.82 37.18 1604.43 37.756 1604.87 38.512C1605.32 39.256 1605.54 40.15 1605.54 41.194C1605.54 41.302 1605.53 41.428 1605.52 41.572C1605.51 41.704 1605.5 41.83 1605.49 41.95H1597.62V40.312H1604.01L1602.93 40.798C1602.93 40.294 1602.83 39.856 1602.62 39.484C1602.42 39.112 1602.14 38.824 1601.78 38.62C1601.42 38.404 1601 38.296 1600.52 38.296C1600.04 38.296 1599.61 38.404 1599.24 38.62C1598.88 38.824 1598.6 39.118 1598.39 39.502C1598.19 39.874 1598.09 40.318 1598.09 40.834V41.266C1598.09 41.794 1598.2 42.262 1598.43 42.67C1598.67 43.066 1599 43.372 1599.42 43.588C1599.85 43.792 1600.36 43.894 1600.93 43.894C1601.45 43.894 1601.9 43.816 1602.28 43.66C1602.68 43.504 1603.04 43.27 1603.36 42.958L1604.86 44.578C1604.41 45.082 1603.85 45.472 1603.18 45.748C1602.51 46.012 1601.74 46.144 1600.86 46.144ZM1607.41 46V36.316H1610.09V39.052L1609.71 38.26C1610 37.576 1610.46 37.06 1611.1 36.712C1611.74 36.352 1612.51 36.172 1613.42 36.172V38.764C1613.3 38.752 1613.19 38.746 1613.1 38.746C1613 38.734 1612.9 38.728 1612.79 38.728C1612.02 38.728 1611.4 38.95 1610.92 39.394C1610.45 39.826 1610.22 40.504 1610.22 41.428V46H1607.41ZM1620.4 46V44.11L1620.22 43.696V40.312C1620.22 39.712 1620.03 39.244 1619.66 38.908C1619.3 38.572 1618.74 38.404 1617.99 38.404C1617.47 38.404 1616.96 38.488 1616.46 38.656C1615.96 38.812 1615.54 39.028 1615.2 39.304L1614.19 37.342C1614.72 36.97 1615.35 36.682 1616.1 36.478C1616.84 36.274 1617.6 36.172 1618.36 36.172C1619.84 36.172 1620.99 36.52 1621.8 37.216C1622.62 37.912 1623.03 38.998 1623.03 40.474V46H1620.4ZM1617.45 46.144C1616.69 46.144 1616.04 46.018 1615.5 45.766C1614.96 45.502 1614.55 45.148 1614.26 44.704C1613.97 44.26 1613.83 43.762 1613.83 43.21C1613.83 42.634 1613.97 42.13 1614.24 41.698C1614.53 41.266 1614.98 40.93 1615.59 40.69C1616.2 40.438 1617 40.312 1617.99 40.312H1620.56V41.95H1618.29C1617.63 41.95 1617.18 42.058 1616.92 42.274C1616.68 42.49 1616.56 42.76 1616.56 43.084C1616.56 43.444 1616.7 43.732 1616.98 43.948C1617.27 44.152 1617.66 44.254 1618.15 44.254C1618.62 44.254 1619.04 44.146 1619.41 43.93C1619.78 43.702 1620.05 43.372 1620.22 42.94L1620.65 44.236C1620.45 44.86 1620.07 45.334 1619.53 45.658C1618.99 45.982 1618.3 46.144 1617.45 46.144ZM1629.53 46.144C1628.39 46.144 1627.5 45.856 1626.86 45.28C1626.23 44.692 1625.91 43.822 1625.91 42.67V34.174H1628.72V42.634C1628.72 43.042 1628.83 43.36 1629.04 43.588C1629.26 43.804 1629.55 43.912 1629.92 43.912C1630.37 43.912 1630.75 43.792 1631.06 43.552L1631.81 45.532C1631.53 45.736 1631.18 45.892 1630.77 46C1630.37 46.096 1629.96 46.144 1629.53 46.144ZM1624.42 38.692V36.532H1631.13V38.692H1624.42ZM1637.7 46.144C1636.67 46.144 1635.75 45.928 1634.94 45.496C1634.15 45.064 1633.52 44.476 1633.05 43.732C1632.6 42.976 1632.37 42.118 1632.37 41.158C1632.37 40.186 1632.6 39.328 1633.05 38.584C1633.52 37.828 1634.15 37.24 1634.94 36.82C1635.75 36.388 1636.67 36.172 1637.7 36.172C1638.72 36.172 1639.63 36.388 1640.43 36.82C1641.24 37.24 1641.87 37.822 1642.32 38.566C1642.78 39.31 1643.01 40.174 1643.01 41.158C1643.01 42.118 1642.78 42.976 1642.32 43.732C1641.87 44.476 1641.24 45.064 1640.43 45.496C1639.63 45.928 1638.72 46.144 1637.7 46.144ZM1637.7 43.84C1638.17 43.84 1638.59 43.732 1638.96 43.516C1639.33 43.3 1639.62 42.994 1639.84 42.598C1640.06 42.19 1640.16 41.71 1640.16 41.158C1640.16 40.594 1640.06 40.114 1639.84 39.718C1639.62 39.322 1639.33 39.016 1638.96 38.8C1638.59 38.584 1638.17 38.476 1637.7 38.476C1637.23 38.476 1636.81 38.584 1636.44 38.8C1636.07 39.016 1635.77 39.322 1635.54 39.718C1635.32 40.114 1635.21 40.594 1635.21 41.158C1635.21 41.71 1635.32 42.19 1635.54 42.598C1635.77 42.994 1636.07 43.3 1636.44 43.516C1636.81 43.732 1637.23 43.84 1637.7 43.84ZM1644.89 46V36.316H1647.57V39.052L1647.19 38.26C1647.48 37.576 1647.94 37.06 1648.58 36.712C1649.21 36.352 1649.99 36.172 1650.9 36.172V38.764C1650.78 38.752 1650.67 38.746 1650.57 38.746C1650.48 38.734 1650.38 38.728 1650.27 38.728C1649.5 38.728 1648.88 38.95 1648.4 39.394C1647.93 39.826 1647.69 40.504 1647.69 41.428V46H1644.89Z" fill="#0073FF"/>
<rect x="1685" y="21" width="214" height="38" fill="#0F62FE"/>
<rect x="1685" y="21" width="214" height="38" stroke="#0F62FE" stroke-width="2"/>
<path d="M1715.51 46.144C1714.77 46.144 1714.07 45.988 1713.42 45.676C1712.77 45.364 1712.25 44.914 1711.84 44.326L1712.88 43.102C1713.23 43.582 1713.62 43.954 1714.05 44.218C1714.5 44.47 1714.98 44.596 1715.51 44.596C1716.95 44.596 1717.67 43.744 1717.67 42.04V34.966H1713.12V33.4H1719.45V41.95C1719.45 43.354 1719.12 44.404 1718.44 45.1C1717.78 45.796 1716.81 46.144 1715.51 46.144ZM1727.45 46.108C1726.49 46.108 1725.64 45.898 1724.9 45.478C1724.15 45.058 1723.56 44.482 1723.13 43.75C1722.7 43.006 1722.48 42.166 1722.48 41.23C1722.48 40.282 1722.7 39.442 1723.13 38.71C1723.56 37.978 1724.15 37.408 1724.9 37C1725.64 36.58 1726.49 36.37 1727.45 36.37C1728.4 36.37 1729.25 36.58 1729.99 37C1730.75 37.408 1731.33 37.978 1731.75 38.71C1732.19 39.43 1732.4 40.27 1732.4 41.23C1732.4 42.178 1732.19 43.018 1731.75 43.75C1731.33 44.482 1730.75 45.058 1729.99 45.478C1729.25 45.898 1728.4 46.108 1727.45 46.108ZM1727.45 44.596C1728.06 44.596 1728.61 44.458 1729.09 44.182C1729.58 43.906 1729.97 43.516 1730.24 43.012C1730.52 42.496 1730.66 41.902 1730.66 41.23C1730.66 40.546 1730.52 39.958 1730.24 39.466C1729.97 38.962 1729.58 38.572 1729.09 38.296C1728.61 38.02 1728.06 37.882 1727.45 37.882C1726.84 37.882 1726.29 38.02 1725.81 38.296C1725.33 38.572 1724.95 38.962 1724.66 39.466C1724.37 39.958 1724.23 40.546 1724.23 41.23C1724.23 41.902 1724.37 42.496 1724.66 43.012C1724.95 43.516 1725.33 43.906 1725.81 44.182C1726.29 44.458 1726.84 44.596 1727.45 44.596ZM1735.29 46V36.46H1737.02V46H1735.29ZM1736.16 34.624C1735.82 34.624 1735.54 34.516 1735.31 34.3C1735.09 34.084 1734.99 33.82 1734.99 33.508C1734.99 33.184 1735.09 32.914 1735.31 32.698C1735.54 32.482 1735.82 32.374 1736.16 32.374C1736.49 32.374 1736.77 32.482 1736.98 32.698C1737.21 32.902 1737.33 33.16 1737.33 33.472C1737.33 33.796 1737.22 34.072 1737 34.3C1736.79 34.516 1736.5 34.624 1736.16 34.624ZM1745.91 36.37C1746.69 36.37 1747.38 36.52 1747.97 36.82C1748.57 37.12 1749.03 37.576 1749.37 38.188C1749.71 38.8 1749.87 39.574 1749.87 40.51V46H1748.15V40.708C1748.15 39.784 1747.92 39.088 1747.46 38.62C1747.02 38.152 1746.39 37.918 1745.57 37.918C1744.96 37.918 1744.43 38.038 1743.97 38.278C1743.51 38.518 1743.16 38.872 1742.91 39.34C1742.67 39.808 1742.55 40.39 1742.55 41.086V46H1740.82V36.46H1742.48V39.034L1742.21 38.35C1742.52 37.726 1743 37.24 1743.65 36.892C1744.29 36.544 1745.05 36.37 1745.91 36.37ZM1764.85 46.144C1763.89 46.144 1762.99 45.982 1762.16 45.658C1761.35 45.334 1760.64 44.884 1760.04 44.308C1759.44 43.72 1758.97 43.036 1758.64 42.256C1758.3 41.476 1758.13 40.624 1758.13 39.7C1758.13 38.776 1758.3 37.924 1758.64 37.144C1758.97 36.364 1759.44 35.686 1760.04 35.11C1760.64 34.522 1761.35 34.066 1762.16 33.742C1762.98 33.418 1763.87 33.256 1764.85 33.256C1765.81 33.256 1766.69 33.418 1767.49 33.742C1768.31 34.054 1769.02 34.504 1769.62 35.092C1770.23 35.668 1770.7 36.346 1771.02 37.126C1771.36 37.906 1771.52 38.764 1771.52 39.7C1771.52 40.636 1771.36 41.494 1771.02 42.274C1770.7 43.054 1770.23 43.738 1769.62 44.326C1769.02 44.902 1768.31 45.352 1767.49 45.676C1766.69 45.988 1765.81 46.144 1764.85 46.144ZM1764.85 44.542C1765.54 44.542 1766.18 44.422 1766.77 44.182C1767.37 43.942 1767.89 43.606 1768.32 43.174C1768.76 42.73 1769.11 42.214 1769.35 41.626C1769.6 41.038 1769.72 40.396 1769.72 39.7C1769.72 39.004 1769.6 38.362 1769.35 37.774C1769.11 37.186 1768.76 36.676 1768.32 36.244C1767.89 35.8 1767.37 35.458 1766.77 35.218C1766.18 34.978 1765.54 34.858 1764.85 34.858C1764.14 34.858 1763.48 34.978 1762.88 35.218C1762.3 35.458 1761.78 35.8 1761.34 36.244C1760.89 36.676 1760.54 37.186 1760.29 37.774C1760.05 38.362 1759.93 39.004 1759.93 39.7C1759.93 40.396 1760.05 41.038 1760.29 41.626C1760.54 42.214 1760.89 42.73 1761.34 43.174C1761.78 43.606 1762.3 43.942 1762.88 44.182C1763.48 44.422 1764.14 44.542 1764.85 44.542ZM1778.54 46.108C1777.72 46.108 1777 45.958 1776.38 45.658C1775.76 45.358 1775.28 44.902 1774.94 44.29C1774.6 43.666 1774.43 42.886 1774.43 41.95V36.46H1776.16V41.752C1776.16 42.688 1776.38 43.39 1776.83 43.858C1777.28 44.326 1777.92 44.56 1778.73 44.56C1779.33 44.56 1779.86 44.44 1780.3 44.2C1780.74 43.948 1781.09 43.588 1781.33 43.12C1781.57 42.64 1781.69 42.064 1781.69 41.392V36.46H1783.41V46H1781.78V43.426L1782.05 44.11C1781.73 44.746 1781.27 45.238 1780.64 45.586C1780.02 45.934 1779.32 46.108 1778.54 46.108ZM1787.2 46V36.46H1788.86V39.052L1788.7 38.404C1788.96 37.744 1789.41 37.24 1790.03 36.892C1790.65 36.544 1791.42 36.37 1792.33 36.37V38.044C1792.26 38.032 1792.19 38.026 1792.12 38.026C1792.06 38.026 1792 38.026 1791.94 38.026C1791.01 38.026 1790.28 38.302 1789.74 38.854C1789.2 39.406 1788.93 40.204 1788.93 41.248V46H1787.2ZM1800.67 46V33.4H1805.98C1807.33 33.4 1808.51 33.664 1809.53 34.192C1810.56 34.72 1811.36 35.458 1811.92 36.406C1812.5 37.354 1812.79 38.452 1812.79 39.7C1812.79 40.948 1812.5 42.046 1811.92 42.994C1811.36 43.942 1810.56 44.68 1809.53 45.208C1808.51 45.736 1807.33 46 1805.98 46H1800.67ZM1802.47 44.434H1805.88C1806.92 44.434 1807.82 44.236 1808.58 43.84C1809.34 43.444 1809.94 42.892 1810.36 42.184C1810.78 41.464 1810.99 40.636 1810.99 39.7C1810.99 38.752 1810.78 37.924 1810.36 37.216C1809.94 36.508 1809.34 35.956 1808.58 35.56C1807.82 35.164 1806.92 34.966 1805.88 34.966H1802.47V44.434ZM1815.79 46V36.46H1817.52V46H1815.79ZM1816.66 34.624C1816.32 34.624 1816.04 34.516 1815.81 34.3C1815.59 34.084 1815.49 33.82 1815.49 33.508C1815.49 33.184 1815.59 32.914 1815.81 32.698C1816.04 32.482 1816.32 32.374 1816.66 32.374C1816.99 32.374 1817.27 32.482 1817.48 32.698C1817.71 32.902 1817.83 33.16 1817.83 33.472C1817.83 33.796 1817.72 34.072 1817.5 34.3C1817.29 34.516 1817 34.624 1816.66 34.624ZM1824.06 46.108C1823.26 46.108 1822.51 46 1821.79 45.784C1821.08 45.568 1820.52 45.304 1820.11 44.992L1820.83 43.624C1821.24 43.9 1821.75 44.134 1822.35 44.326C1822.95 44.518 1823.56 44.614 1824.18 44.614C1824.99 44.614 1825.56 44.5 1825.91 44.272C1826.27 44.044 1826.45 43.726 1826.45 43.318C1826.45 43.018 1826.34 42.784 1826.13 42.616C1825.91 42.448 1825.62 42.322 1825.26 42.238C1824.91 42.154 1824.52 42.082 1824.09 42.022C1823.66 41.95 1823.23 41.866 1822.8 41.77C1822.36 41.662 1821.97 41.518 1821.61 41.338C1821.25 41.146 1820.96 40.888 1820.74 40.564C1820.53 40.228 1820.42 39.784 1820.42 39.232C1820.42 38.656 1820.58 38.152 1820.91 37.72C1821.23 37.288 1821.69 36.958 1822.27 36.73C1822.87 36.49 1823.58 36.37 1824.4 36.37C1825.02 36.37 1825.65 36.448 1826.29 36.604C1826.94 36.748 1827.46 36.958 1827.87 37.234L1827.13 38.602C1826.7 38.314 1826.25 38.116 1825.78 38.008C1825.32 37.9 1824.85 37.846 1824.38 37.846C1823.62 37.846 1823.06 37.972 1822.69 38.224C1822.32 38.464 1822.13 38.776 1822.13 39.16C1822.13 39.484 1822.24 39.736 1822.45 39.916C1822.68 40.084 1822.97 40.216 1823.32 40.312C1823.68 40.408 1824.07 40.492 1824.51 40.564C1824.94 40.624 1825.37 40.708 1825.8 40.816C1826.23 40.912 1826.62 41.05 1826.97 41.23C1827.33 41.41 1827.62 41.662 1827.84 41.986C1828.06 42.31 1828.18 42.742 1828.18 43.282C1828.18 43.858 1828.01 44.356 1827.67 44.776C1827.34 45.196 1826.86 45.526 1826.25 45.766C1825.64 45.994 1824.91 46.108 1824.06 46.108ZM1835 46.108C1834.02 46.108 1833.15 45.898 1832.39 45.478C1831.63 45.058 1831.04 44.482 1830.6 43.75C1830.17 43.018 1829.96 42.178 1829.96 41.23C1829.96 40.282 1830.17 39.442 1830.6 38.71C1831.04 37.978 1831.63 37.408 1832.39 37C1833.15 36.58 1834.02 36.37 1835 36.37C1835.86 36.37 1836.63 36.544 1837.3 36.892C1837.98 37.228 1838.51 37.732 1838.88 38.404L1837.57 39.25C1837.26 38.782 1836.87 38.44 1836.42 38.224C1835.97 37.996 1835.49 37.882 1834.98 37.882C1834.35 37.882 1833.8 38.02 1833.3 38.296C1832.81 38.572 1832.42 38.962 1832.13 39.466C1831.85 39.958 1831.7 40.546 1831.7 41.23C1831.7 41.914 1831.85 42.508 1832.13 43.012C1832.42 43.516 1832.81 43.906 1833.3 44.182C1833.8 44.458 1834.35 44.596 1834.98 44.596C1835.49 44.596 1835.97 44.488 1836.42 44.272C1836.87 44.044 1837.26 43.696 1837.57 43.228L1838.88 44.056C1838.51 44.716 1837.98 45.226 1837.3 45.586C1836.63 45.934 1835.86 46.108 1835 46.108ZM1845.57 46.108C1844.61 46.108 1843.75 45.898 1843.01 45.478C1842.27 45.058 1841.68 44.482 1841.25 43.75C1840.81 43.006 1840.6 42.166 1840.6 41.23C1840.6 40.282 1840.81 39.442 1841.25 38.71C1841.68 37.978 1842.27 37.408 1843.01 37C1843.75 36.58 1844.61 36.37 1845.57 36.37C1846.51 36.37 1847.36 36.58 1848.1 37C1848.86 37.408 1849.45 37.978 1849.87 38.71C1850.3 39.43 1850.52 40.27 1850.52 41.23C1850.52 42.178 1850.3 43.018 1849.87 43.75C1849.45 44.482 1848.86 45.058 1848.1 45.478C1847.36 45.898 1846.51 46.108 1845.57 46.108ZM1845.57 44.596C1846.18 44.596 1846.72 44.458 1847.2 44.182C1847.7 43.906 1848.08 43.516 1848.36 43.012C1848.63 42.496 1848.77 41.902 1848.77 41.23C1848.77 40.546 1848.63 39.958 1848.36 39.466C1848.08 38.962 1847.7 38.572 1847.2 38.296C1846.72 38.02 1846.18 37.882 1845.57 37.882C1844.95 37.882 1844.41 38.02 1843.93 38.296C1843.45 38.572 1843.06 38.962 1842.78 39.466C1842.49 39.958 1842.34 40.546 1842.34 41.23C1842.34 41.902 1842.49 42.496 1842.78 43.012C1843.06 43.516 1843.45 43.906 1843.93 44.182C1844.41 44.458 1844.95 44.596 1845.57 44.596ZM1853.41 46V36.46H1855.06V39.052L1854.9 38.404C1855.16 37.744 1855.61 37.24 1856.23 36.892C1856.86 36.544 1857.62 36.37 1858.54 36.37V38.044C1858.46 38.032 1858.39 38.026 1858.32 38.026C1858.26 38.026 1858.2 38.026 1858.14 38.026C1857.22 38.026 1856.48 38.302 1855.94 38.854C1855.4 39.406 1855.13 40.204 1855.13 41.248V46H1853.41ZM1865.02 46.108C1864.1 46.108 1863.27 45.904 1862.54 45.496C1861.82 45.088 1861.25 44.518 1860.83 43.786C1860.41 43.054 1860.2 42.202 1860.2 41.23C1860.2 40.258 1860.41 39.412 1860.83 38.692C1861.25 37.96 1861.82 37.39 1862.54 36.982C1863.27 36.574 1864.1 36.37 1865.02 36.37C1865.82 36.37 1866.55 36.55 1867.2 36.91C1867.85 37.27 1868.36 37.81 1868.75 38.53C1869.14 39.25 1869.34 40.15 1869.34 41.23C1869.34 42.31 1869.15 43.21 1868.76 43.93C1868.39 44.65 1867.88 45.196 1867.23 45.568C1866.59 45.928 1865.85 46.108 1865.02 46.108ZM1865.16 44.596C1865.76 44.596 1866.3 44.458 1866.78 44.182C1867.28 43.906 1867.66 43.516 1867.94 43.012C1868.22 42.496 1868.37 41.902 1868.37 41.23C1868.37 40.546 1868.22 39.958 1867.94 39.466C1867.66 38.962 1867.28 38.572 1866.78 38.296C1866.3 38.02 1865.76 37.882 1865.16 37.882C1864.55 37.882 1864.01 38.02 1863.53 38.296C1863.05 38.572 1862.66 38.962 1862.37 39.466C1862.09 39.958 1861.94 40.546 1861.94 41.23C1861.94 41.902 1862.09 42.496 1862.37 43.012C1862.66 43.516 1863.05 43.906 1863.53 44.182C1864.01 44.458 1864.55 44.596 1865.16 44.596ZM1868.42 46V43.426L1868.53 41.212L1868.35 38.998V32.644H1870.08V46H1868.42Z" fill="white"/>
<rect y="80" width="1920" height="1000" fill="#F2F4F8"/>
<rect width="1920" height="1080" fill="#121619" fill-opacity="0.75"/>
<rect x="770.5" y="429.5" width="379" height="222" fill="white"/>
<rect x="770.5" y="429.5" width="379" height="222" stroke="#DDE1E6"/>
<path d="M806.547 450.25V473H801.859L792.719 457.75V473H788.031V450.25H792.719L801.875 465.516V450.25H806.547ZM818.125 473.312C816.812 473.312 815.635 473.104 814.594 472.688C813.552 472.26 812.667 471.672 811.938 470.922C811.219 470.172 810.667 469.302 810.281 468.312C809.896 467.312 809.703 466.25 809.703 465.125V464.5C809.703 463.219 809.885 462.047 810.25 460.984C810.615 459.922 811.135 459 811.812 458.219C812.5 457.438 813.333 456.839 814.312 456.422C815.292 455.995 816.396 455.781 817.625 455.781C818.823 455.781 819.885 455.979 820.812 456.375C821.74 456.771 822.516 457.333 823.141 458.062C823.776 458.792 824.255 459.667 824.578 460.688C824.901 461.698 825.062 462.823 825.062 464.062V465.938H811.625V462.938H820.641V462.594C820.641 461.969 820.526 461.411 820.297 460.922C820.078 460.422 819.745 460.026 819.297 459.734C818.849 459.443 818.276 459.297 817.578 459.297C816.984 459.297 816.474 459.427 816.047 459.688C815.62 459.948 815.271 460.312 815 460.781C814.74 461.25 814.542 461.802 814.406 462.438C814.281 463.062 814.219 463.75 814.219 464.5V465.125C814.219 465.802 814.312 466.427 814.5 467C814.698 467.573 814.974 468.068 815.328 468.484C815.693 468.901 816.13 469.224 816.641 469.453C817.161 469.682 817.75 469.797 818.406 469.797C819.219 469.797 819.974 469.641 820.672 469.328C821.38 469.005 821.99 468.521 822.5 467.875L824.688 470.25C824.333 470.76 823.849 471.25 823.234 471.719C822.63 472.188 821.901 472.573 821.047 472.875C820.193 473.167 819.219 473.312 818.125 473.312ZM832.453 468.625L835.969 456.094H838.828L837.906 461.016L834.391 473H832L832.453 468.625ZM830.672 456.094L833.188 468.609L833.422 473H830.609L826.328 456.094H830.672ZM842.047 468.406L844.5 456.094H848.859L844.578 473H841.781L842.047 468.406ZM839.219 456.094L842.719 468.531L843.203 473H840.797L837.281 461.031L836.391 456.094H839.219ZM868.234 464.891H862.438V461.234H868.234C869.13 461.234 869.859 461.089 870.422 460.797C870.984 460.495 871.396 460.078 871.656 459.547C871.917 459.016 872.047 458.417 872.047 457.75C872.047 457.073 871.917 456.443 871.656 455.859C871.396 455.276 870.984 454.807 870.422 454.453C869.859 454.099 869.13 453.922 868.234 453.922H864.062V473H859.375V450.25H868.234C870.016 450.25 871.542 450.573 872.812 451.219C874.094 451.854 875.073 452.734 875.75 453.859C876.427 454.984 876.766 456.271 876.766 457.719C876.766 459.188 876.427 460.458 875.75 461.531C875.073 462.604 874.094 463.432 872.812 464.016C871.542 464.599 870.016 464.891 868.234 464.891ZM884.219 459.781V473H879.719V456.094H883.953L884.219 459.781ZM889.312 455.984L889.234 460.156C889.016 460.125 888.75 460.099 888.438 460.078C888.135 460.047 887.859 460.031 887.609 460.031C886.974 460.031 886.422 460.115 885.953 460.281C885.495 460.438 885.109 460.672 884.797 460.984C884.495 461.297 884.266 461.677 884.109 462.125C883.964 462.573 883.88 463.083 883.859 463.656L882.953 463.375C882.953 462.281 883.062 461.276 883.281 460.359C883.5 459.432 883.818 458.625 884.234 457.938C884.661 457.25 885.182 456.719 885.797 456.344C886.411 455.969 887.115 455.781 887.906 455.781C888.156 455.781 888.411 455.802 888.672 455.844C888.932 455.875 889.146 455.922 889.312 455.984ZM890.25 464.719V464.391C890.25 463.151 890.427 462.01 890.781 460.969C891.135 459.917 891.651 459.005 892.328 458.234C893.005 457.464 893.839 456.865 894.828 456.438C895.818 456 896.953 455.781 898.234 455.781C899.516 455.781 900.656 456 901.656 456.438C902.656 456.865 903.495 457.464 904.172 458.234C904.859 459.005 905.38 459.917 905.734 460.969C906.089 462.01 906.266 463.151 906.266 464.391V464.719C906.266 465.948 906.089 467.089 905.734 468.141C905.38 469.182 904.859 470.094 904.172 470.875C903.495 471.646 902.661 472.245 901.672 472.672C900.682 473.099 899.547 473.312 898.266 473.312C896.984 473.312 895.844 473.099 894.844 472.672C893.854 472.245 893.016 471.646 892.328 470.875C891.651 470.094 891.135 469.182 890.781 468.141C890.427 467.089 890.25 465.948 890.25 464.719ZM894.75 464.391V464.719C894.75 465.427 894.812 466.089 894.938 466.703C895.062 467.318 895.26 467.859 895.531 468.328C895.812 468.786 896.177 469.146 896.625 469.406C897.073 469.667 897.62 469.797 898.266 469.797C898.891 469.797 899.427 469.667 899.875 469.406C900.323 469.146 900.682 468.786 900.953 468.328C901.224 467.859 901.422 467.318 901.547 466.703C901.682 466.089 901.75 465.427 901.75 464.719V464.391C901.75 463.703 901.682 463.057 901.547 462.453C901.422 461.839 901.219 461.297 900.938 460.828C900.667 460.349 900.307 459.974 899.859 459.703C899.411 459.432 898.87 459.297 898.234 459.297C897.599 459.297 897.057 459.432 896.609 459.703C896.172 459.974 895.812 460.349 895.531 460.828C895.26 461.297 895.062 461.839 894.938 462.453C894.812 463.057 894.75 463.703 894.75 464.391ZM909.281 456.094H913.797V474.016C913.797 475.266 913.568 476.323 913.109 477.188C912.651 478.052 911.99 478.708 911.125 479.156C910.26 479.604 909.214 479.828 907.984 479.828C907.599 479.828 907.224 479.807 906.859 479.766C906.484 479.724 906.099 479.656 905.703 479.562L905.719 476.109C905.969 476.151 906.214 476.182 906.453 476.203C906.682 476.234 906.917 476.25 907.156 476.25C907.625 476.25 908.016 476.172 908.328 476.016C908.641 475.859 908.875 475.615 909.031 475.281C909.198 474.958 909.281 474.536 909.281 474.016V456.094ZM908.922 451.688C908.922 451.031 909.151 450.49 909.609 450.062C910.078 449.635 910.693 449.422 911.453 449.422C912.224 449.422 912.839 449.635 913.297 450.062C913.755 450.49 913.984 451.031 913.984 451.688C913.984 452.344 913.755 452.885 913.297 453.312C912.839 453.74 912.224 453.953 911.453 453.953C910.693 453.953 910.078 453.74 909.609 453.312C909.151 452.885 908.922 452.344 908.922 451.688ZM925.156 473.312C923.844 473.312 922.667 473.104 921.625 472.688C920.583 472.26 919.698 471.672 918.969 470.922C918.25 470.172 917.698 469.302 917.312 468.312C916.927 467.312 916.734 466.25 916.734 465.125V464.5C916.734 463.219 916.917 462.047 917.281 460.984C917.646 459.922 918.167 459 918.844 458.219C919.531 457.438 920.365 456.839 921.344 456.422C922.323 455.995 923.427 455.781 924.656 455.781C925.854 455.781 926.917 455.979 927.844 456.375C928.771 456.771 929.547 457.333 930.172 458.062C930.807 458.792 931.286 459.667 931.609 460.688C931.932 461.698 932.094 462.823 932.094 464.062V465.938H918.656V462.938H927.672V462.594C927.672 461.969 927.557 461.411 927.328 460.922C927.109 460.422 926.776 460.026 926.328 459.734C925.88 459.443 925.307 459.297 924.609 459.297C924.016 459.297 923.505 459.427 923.078 459.688C922.651 459.948 922.302 460.312 922.031 460.781C921.771 461.25 921.573 461.802 921.438 462.438C921.312 463.062 921.25 463.75 921.25 464.5V465.125C921.25 465.802 921.344 466.427 921.531 467C921.729 467.573 922.005 468.068 922.359 468.484C922.724 468.901 923.161 469.224 923.672 469.453C924.193 469.682 924.781 469.797 925.438 469.797C926.25 469.797 927.005 469.641 927.703 469.328C928.411 469.005 929.021 468.521 929.531 467.875L931.719 470.25C931.365 470.76 930.88 471.25 930.266 471.719C929.661 472.188 928.932 472.573 928.078 472.875C927.224 473.167 926.25 473.312 925.156 473.312ZM941.641 469.797C942.193 469.797 942.682 469.693 943.109 469.484C943.536 469.266 943.87 468.964 944.109 468.578C944.359 468.182 944.49 467.719 944.5 467.188H948.734C948.724 468.375 948.406 469.432 947.781 470.359C947.156 471.276 946.318 472 945.266 472.531C944.214 473.052 943.036 473.312 941.734 473.312C940.422 473.312 939.276 473.094 938.297 472.656C937.328 472.219 936.521 471.615 935.875 470.844C935.229 470.062 934.745 469.156 934.422 468.125C934.099 467.083 933.938 465.969 933.938 464.781V464.328C933.938 463.13 934.099 462.016 934.422 460.984C934.745 459.943 935.229 459.036 935.875 458.266C936.521 457.484 937.328 456.875 938.297 456.438C939.266 456 940.401 455.781 941.703 455.781C943.089 455.781 944.302 456.047 945.344 456.578C946.396 457.109 947.219 457.87 947.812 458.859C948.417 459.839 948.724 461 948.734 462.344H944.5C944.49 461.781 944.37 461.271 944.141 460.812C943.922 460.354 943.599 459.99 943.172 459.719C942.755 459.438 942.24 459.297 941.625 459.297C940.969 459.297 940.432 459.438 940.016 459.719C939.599 459.99 939.276 460.365 939.047 460.844C938.818 461.312 938.656 461.849 938.562 462.453C938.479 463.047 938.438 463.672 938.438 464.328V464.781C938.438 465.438 938.479 466.068 938.562 466.672C938.646 467.276 938.802 467.812 939.031 468.281C939.271 468.75 939.599 469.12 940.016 469.391C940.432 469.661 940.974 469.797 941.641 469.797ZM959.625 456.094V459.281H949.781V456.094H959.625ZM952.219 451.922H956.719V467.906C956.719 468.396 956.781 468.771 956.906 469.031C957.042 469.292 957.24 469.474 957.5 469.578C957.76 469.672 958.089 469.719 958.484 469.719C958.766 469.719 959.016 469.708 959.234 469.688C959.464 469.656 959.656 469.625 959.812 469.594L959.828 472.906C959.443 473.031 959.026 473.13 958.578 473.203C958.13 473.276 957.635 473.312 957.094 473.312C956.104 473.312 955.24 473.151 954.5 472.828C953.771 472.495 953.208 471.964 952.812 471.234C952.417 470.505 952.219 469.547 952.219 468.359V451.922Z" fill="#21272A"/>
<path d="M1123.31 456.9L1126.85 453.364C1126.94 453.272 1127.02 453.161 1127.07 453.039C1127.13 452.917 1127.15 452.786 1127.15 452.653C1127.16 452.52 1127.13 452.389 1127.08 452.266C1127.03 452.143 1126.96 452.031 1126.86 451.937C1126.77 451.844 1126.66 451.769 1126.53 451.719C1126.41 451.669 1126.28 451.643 1126.15 451.645C1126.01 451.646 1125.88 451.673 1125.76 451.726C1125.64 451.778 1125.53 451.854 1125.44 451.95L1121.9 455.485L1118.36 451.95C1118.27 451.854 1118.16 451.778 1118.04 451.726C1117.92 451.673 1117.79 451.646 1117.65 451.645C1117.52 451.643 1117.39 451.669 1117.27 451.719C1117.14 451.769 1117.03 451.844 1116.94 451.937C1116.84 452.031 1116.77 452.143 1116.72 452.266C1116.67 452.389 1116.64 452.52 1116.64 452.653C1116.65 452.786 1116.67 452.917 1116.73 453.039C1116.78 453.161 1116.85 453.272 1116.95 453.364L1120.49 456.899L1116.95 460.435C1116.85 460.527 1116.78 460.637 1116.73 460.759C1116.67 460.881 1116.65 461.013 1116.64 461.145C1116.64 461.278 1116.67 461.41 1116.72 461.533C1116.77 461.656 1116.84 461.767 1116.94 461.861C1117.03 461.955 1117.14 462.029 1117.27 462.08C1117.39 462.13 1117.52 462.155 1117.65 462.154C1117.79 462.153 1117.92 462.125 1118.04 462.073C1118.16 462.021 1118.27 461.944 1118.36 461.849L1121.9 458.314L1125.44 461.849C1125.53 461.944 1125.64 462.021 1125.76 462.073C1125.88 462.125 1126.01 462.153 1126.15 462.154C1126.28 462.155 1126.41 462.13 1126.53 462.08C1126.66 462.029 1126.77 461.955 1126.86 461.861C1126.96 461.767 1127.03 461.656 1127.08 461.533C1127.13 461.41 1127.16 461.278 1127.15 461.145C1127.15 461.013 1127.13 460.881 1127.07 460.759C1127.02 460.637 1126.94 460.527 1126.85 460.435L1123.31 456.899V456.9Z" fill="#21272A"/>
<path d="M790.826 507.097H788.167V506.023H790.826C791.341 506.023 791.758 505.941 792.077 505.777C792.396 505.613 792.629 505.385 792.774 505.094C792.925 504.802 793 504.469 793 504.096C793 503.754 792.925 503.433 792.774 503.132C792.629 502.831 792.396 502.59 792.077 502.407C791.758 502.22 791.341 502.127 790.826 502.127H788.475V511H787.155V501.047H790.826C791.578 501.047 792.214 501.177 792.733 501.437C793.253 501.696 793.647 502.056 793.916 502.517C794.185 502.972 794.319 503.494 794.319 504.082C794.319 504.72 794.185 505.265 793.916 505.716C793.647 506.167 793.253 506.511 792.733 506.748C792.214 506.98 791.578 507.097 790.826 507.097ZM797.061 504.766V511H795.796V503.604H797.026L797.061 504.766ZM799.371 503.562L799.364 504.738C799.259 504.715 799.159 504.702 799.063 504.697C798.972 504.688 798.868 504.684 798.749 504.684C798.457 504.684 798.2 504.729 797.977 504.82C797.753 504.911 797.564 505.039 797.409 505.203C797.254 505.367 797.131 505.563 797.04 505.791C796.953 506.014 796.896 506.26 796.869 506.529L796.514 506.734C796.514 506.288 796.557 505.868 796.644 505.477C796.735 505.085 796.874 504.738 797.061 504.438C797.247 504.132 797.484 503.895 797.771 503.727C798.063 503.553 798.41 503.467 798.811 503.467C798.902 503.467 799.007 503.478 799.125 503.501C799.243 503.519 799.326 503.54 799.371 503.562ZM800.068 507.384V507.227C800.068 506.693 800.146 506.199 800.301 505.743C800.456 505.283 800.679 504.884 800.971 504.547C801.262 504.205 801.616 503.941 802.03 503.754C802.445 503.562 802.91 503.467 803.425 503.467C803.944 503.467 804.411 503.562 804.826 503.754C805.245 503.941 805.601 504.205 805.893 504.547C806.189 504.884 806.414 505.283 806.569 505.743C806.724 506.199 806.802 506.693 806.802 507.227V507.384C806.802 507.917 806.724 508.411 806.569 508.867C806.414 509.323 806.189 509.722 805.893 510.063C805.601 510.401 805.248 510.665 804.833 510.856C804.423 511.043 803.958 511.137 803.438 511.137C802.919 511.137 802.452 511.043 802.037 510.856C801.622 510.665 801.267 510.401 800.971 510.063C800.679 509.722 800.456 509.323 800.301 508.867C800.146 508.411 800.068 507.917 800.068 507.384ZM801.333 507.227V507.384C801.333 507.753 801.376 508.102 801.463 508.43C801.549 508.753 801.679 509.04 801.853 509.291C802.03 509.542 802.251 509.74 802.516 509.886C802.78 510.027 803.088 510.098 803.438 510.098C803.785 510.098 804.088 510.027 804.348 509.886C804.612 509.74 804.831 509.542 805.004 509.291C805.177 509.04 805.307 508.753 805.394 508.43C805.485 508.102 805.53 507.753 805.53 507.384V507.227C805.53 506.862 805.485 506.518 805.394 506.194C805.307 505.866 805.175 505.577 804.997 505.326C804.824 505.071 804.605 504.87 804.341 504.725C804.081 504.579 803.776 504.506 803.425 504.506C803.078 504.506 802.773 504.579 802.509 504.725C802.249 504.87 802.03 505.071 801.853 505.326C801.679 505.577 801.549 505.866 801.463 506.194C801.376 506.518 801.333 506.862 801.333 507.227ZM808.422 503.604H809.693V511.882C809.693 512.333 809.62 512.716 809.475 513.03C809.333 513.345 809.119 513.582 808.832 513.741C808.549 513.905 808.192 513.987 807.759 513.987C807.645 513.987 807.513 513.976 807.362 513.953C807.207 513.93 807.077 513.903 806.973 513.871L806.979 512.853C807.066 512.871 807.164 512.884 807.273 512.894C807.383 512.907 807.479 512.914 807.561 512.914C807.747 512.914 807.905 512.88 808.032 512.812C808.16 512.743 808.256 512.634 808.319 512.483C808.388 512.333 808.422 512.132 808.422 511.882V503.604ZM808.292 501.642C808.292 501.437 808.356 501.263 808.483 501.122C808.611 500.981 808.796 500.91 809.037 500.91C809.283 500.91 809.47 500.981 809.598 501.122C809.725 501.263 809.789 501.437 809.789 501.642C809.789 501.838 809.725 502.006 809.598 502.147C809.47 502.284 809.283 502.353 809.037 502.353C808.796 502.353 808.611 502.284 808.483 502.147C808.356 502.006 808.292 501.838 808.292 501.642ZM814.807 511.137C814.292 511.137 813.825 511.05 813.405 510.877C812.991 510.699 812.633 510.451 812.332 510.132C812.036 509.813 811.808 509.435 811.648 508.997C811.489 508.56 811.409 508.081 811.409 507.562V507.274C811.409 506.673 811.498 506.137 811.676 505.668C811.854 505.194 812.095 504.793 812.4 504.465C812.706 504.137 813.052 503.888 813.439 503.72C813.827 503.551 814.228 503.467 814.643 503.467C815.171 503.467 815.627 503.558 816.01 503.74C816.397 503.923 816.714 504.178 816.96 504.506C817.206 504.829 817.388 505.212 817.507 505.654C817.625 506.092 817.685 506.57 817.685 507.09V507.657H812.161V506.625H816.42V506.529C816.402 506.201 816.333 505.882 816.215 505.572C816.101 505.262 815.919 505.007 815.668 504.807C815.417 504.606 815.076 504.506 814.643 504.506C814.355 504.506 814.091 504.567 813.85 504.69C813.608 504.809 813.401 504.987 813.228 505.224C813.054 505.461 812.92 505.75 812.824 506.092C812.729 506.434 812.681 506.828 812.681 507.274V507.562C812.681 507.912 812.729 508.243 812.824 508.553C812.924 508.858 813.068 509.127 813.255 509.359C813.446 509.592 813.676 509.774 813.945 509.906C814.219 510.038 814.529 510.104 814.875 510.104C815.322 510.104 815.7 510.013 816.01 509.831C816.32 509.649 816.591 509.405 816.823 509.1L817.589 509.708C817.429 509.95 817.227 510.18 816.98 510.398C816.734 510.617 816.431 510.795 816.071 510.932C815.716 511.068 815.294 511.137 814.807 511.137ZM822.121 510.098C822.422 510.098 822.7 510.036 822.955 509.913C823.21 509.79 823.42 509.621 823.584 509.407C823.748 509.188 823.841 508.94 823.864 508.662H825.067C825.045 509.1 824.896 509.507 824.623 509.886C824.354 510.259 824.001 510.562 823.563 510.795C823.126 511.023 822.645 511.137 822.121 511.137C821.565 511.137 821.08 511.039 820.665 510.843C820.255 510.647 819.913 510.378 819.64 510.036C819.371 509.694 819.168 509.302 819.031 508.86C818.899 508.414 818.833 507.942 818.833 507.445V507.158C818.833 506.661 818.899 506.192 819.031 505.75C819.168 505.303 819.371 504.909 819.64 504.567C819.913 504.226 820.255 503.957 820.665 503.761C821.08 503.565 821.565 503.467 822.121 503.467C822.7 503.467 823.206 503.585 823.639 503.822C824.072 504.055 824.411 504.374 824.657 504.779C824.908 505.18 825.045 505.636 825.067 506.146H823.864C823.841 505.841 823.755 505.565 823.604 505.319C823.459 505.073 823.258 504.877 823.003 504.731C822.752 504.581 822.458 504.506 822.121 504.506C821.734 504.506 821.408 504.583 821.144 504.738C820.884 504.889 820.676 505.094 820.521 505.354C820.371 505.609 820.262 505.894 820.193 506.208C820.13 506.518 820.098 506.835 820.098 507.158V507.445C820.098 507.769 820.13 508.088 820.193 508.402C820.257 508.717 820.364 509.002 820.515 509.257C820.67 509.512 820.877 509.717 821.137 509.872C821.401 510.022 821.729 510.098 822.121 510.098ZM829.586 503.604V504.574H825.587V503.604H829.586ZM826.94 501.806H828.205V509.168C828.205 509.419 828.244 509.608 828.321 509.735C828.399 509.863 828.499 509.947 828.622 509.988C828.745 510.029 828.877 510.05 829.019 510.05C829.123 510.05 829.233 510.041 829.347 510.022C829.465 510 829.554 509.981 829.613 509.968L829.62 511C829.52 511.032 829.388 511.062 829.224 511.089C829.064 511.121 828.87 511.137 828.643 511.137C828.333 511.137 828.048 511.075 827.788 510.952C827.528 510.829 827.321 510.624 827.166 510.337C827.016 510.045 826.94 509.653 826.94 509.161V501.806ZM835.807 505.183V511H834.542V503.604H835.738L835.807 505.183ZM835.506 507.021L834.979 507.001C834.984 506.495 835.059 506.028 835.205 505.6C835.351 505.167 835.556 504.791 835.82 504.472C836.085 504.153 836.399 503.907 836.764 503.733C837.133 503.556 837.541 503.467 837.987 503.467C838.352 503.467 838.68 503.517 838.972 503.617C839.263 503.713 839.512 503.868 839.717 504.082C839.926 504.296 840.086 504.574 840.195 504.916C840.305 505.253 840.359 505.666 840.359 506.153V511H839.088V506.14C839.088 505.752 839.031 505.442 838.917 505.21C838.803 504.973 838.637 504.802 838.418 504.697C838.199 504.588 837.93 504.533 837.611 504.533C837.297 504.533 837.01 504.599 836.75 504.731C836.495 504.864 836.274 505.046 836.087 505.278C835.905 505.511 835.761 505.777 835.656 506.078C835.556 506.374 835.506 506.689 835.506 507.021ZM846.642 509.735V505.928C846.642 505.636 846.582 505.383 846.464 505.169C846.35 504.95 846.177 504.782 845.944 504.663C845.712 504.545 845.425 504.485 845.083 504.485C844.764 504.485 844.484 504.54 844.242 504.649C844.005 504.759 843.818 504.902 843.682 505.08C843.549 505.258 843.483 505.449 843.483 505.654H842.219C842.219 505.39 842.287 505.128 842.424 504.868C842.561 504.608 842.757 504.374 843.012 504.164C843.271 503.95 843.581 503.781 843.941 503.658C844.306 503.531 844.712 503.467 845.158 503.467C845.696 503.467 846.17 503.558 846.58 503.74C846.995 503.923 847.318 504.198 847.551 504.567C847.788 504.932 847.906 505.39 847.906 505.941V509.387C847.906 509.633 847.927 509.895 847.968 510.173C848.013 510.451 848.079 510.69 848.166 510.891V511H846.847C846.783 510.854 846.733 510.66 846.696 510.419C846.66 510.173 846.642 509.945 846.642 509.735ZM846.86 506.516L846.874 507.404H845.596C845.236 507.404 844.914 507.434 844.632 507.493C844.349 507.548 844.112 507.632 843.921 507.746C843.729 507.86 843.584 508.004 843.483 508.177C843.383 508.345 843.333 508.544 843.333 508.771C843.333 509.004 843.385 509.216 843.49 509.407C843.595 509.599 843.752 509.751 843.962 509.865C844.176 509.975 844.438 510.029 844.748 510.029C845.135 510.029 845.477 509.947 845.773 509.783C846.07 509.619 846.304 509.419 846.478 509.182C846.655 508.945 846.751 508.715 846.765 508.491L847.305 509.1C847.273 509.291 847.186 509.503 847.045 509.735C846.904 509.968 846.715 510.191 846.478 510.405C846.245 510.615 845.967 510.79 845.644 510.932C845.325 511.068 844.965 511.137 844.563 511.137C844.062 511.137 843.622 511.039 843.244 510.843C842.87 510.647 842.579 510.385 842.369 510.057C842.164 509.724 842.062 509.353 842.062 508.942C842.062 508.546 842.139 508.197 842.294 507.896C842.449 507.591 842.672 507.338 842.964 507.138C843.256 506.933 843.606 506.778 844.017 506.673C844.427 506.568 844.885 506.516 845.391 506.516H846.86ZM851.153 505.073V511H849.882V503.604H851.085L851.153 505.073ZM850.894 507.021L850.306 507.001C850.31 506.495 850.376 506.028 850.504 505.6C850.632 505.167 850.821 504.791 851.071 504.472C851.322 504.153 851.634 503.907 852.008 503.733C852.382 503.556 852.814 503.467 853.307 503.467C853.653 503.467 853.972 503.517 854.264 503.617C854.555 503.713 854.808 503.866 855.022 504.075C855.237 504.285 855.403 504.554 855.521 504.882C855.64 505.21 855.699 505.606 855.699 506.071V511H854.435V506.133C854.435 505.745 854.368 505.436 854.236 505.203C854.109 504.971 853.926 504.802 853.689 504.697C853.452 504.588 853.174 504.533 852.855 504.533C852.482 504.533 852.17 504.599 851.919 504.731C851.668 504.864 851.468 505.046 851.317 505.278C851.167 505.511 851.058 505.777 850.989 506.078C850.925 506.374 850.894 506.689 850.894 507.021ZM855.686 506.324L854.838 506.584C854.842 506.178 854.909 505.789 855.036 505.415C855.168 505.041 855.357 504.709 855.604 504.417C855.854 504.125 856.162 503.895 856.526 503.727C856.891 503.553 857.308 503.467 857.777 503.467C858.174 503.467 858.525 503.519 858.83 503.624C859.14 503.729 859.4 503.891 859.609 504.109C859.824 504.324 859.985 504.599 860.095 504.937C860.204 505.274 860.259 505.675 860.259 506.14V511H858.987V506.126C858.987 505.711 858.921 505.39 858.789 505.162C858.661 504.93 858.479 504.768 858.242 504.677C858.01 504.581 857.732 504.533 857.408 504.533C857.13 504.533 856.884 504.581 856.67 504.677C856.456 504.772 856.276 504.905 856.13 505.073C855.984 505.237 855.872 505.426 855.795 505.641C855.722 505.855 855.686 506.083 855.686 506.324ZM865.242 511.137C864.727 511.137 864.26 511.05 863.841 510.877C863.426 510.699 863.068 510.451 862.768 510.132C862.471 509.813 862.243 509.435 862.084 508.997C861.924 508.56 861.845 508.081 861.845 507.562V507.274C861.845 506.673 861.934 506.137 862.111 505.668C862.289 505.194 862.531 504.793 862.836 504.465C863.141 504.137 863.488 503.888 863.875 503.72C864.262 503.551 864.663 503.467 865.078 503.467C865.607 503.467 866.062 503.558 866.445 503.74C866.833 503.923 867.149 504.178 867.396 504.506C867.642 504.829 867.824 505.212 867.942 505.654C868.061 506.092 868.12 506.57 868.12 507.09V507.657H862.597V506.625H866.855V506.529C866.837 506.201 866.769 505.882 866.65 505.572C866.536 505.262 866.354 505.007 866.104 504.807C865.853 504.606 865.511 504.506 865.078 504.506C864.791 504.506 864.527 504.567 864.285 504.69C864.044 504.809 863.836 504.987 863.663 505.224C863.49 505.461 863.355 505.75 863.26 506.092C863.164 506.434 863.116 506.828 863.116 507.274V507.562C863.116 507.912 863.164 508.243 863.26 508.553C863.36 508.858 863.504 509.127 863.69 509.359C863.882 509.592 864.112 509.774 864.381 509.906C864.654 510.038 864.964 510.104 865.311 510.104C865.757 510.104 866.135 510.013 866.445 509.831C866.755 509.649 867.026 509.405 867.259 509.1L868.024 509.708C867.865 509.95 867.662 510.18 867.416 510.398C867.17 510.617 866.867 510.795 866.507 510.932C866.151 511.068 865.73 511.137 865.242 511.137Z" fill="#21272A"/>
<mask id="path-30-inside-1_94_1449" fill="white">
<path d="M786 524H1134V572H786V524Z"/>
</mask>
<path d="M786 524H1134V572H786V524Z" fill="#F2F4F8"/>
<path d="M1134 572V571H786V572V573H1134V572Z" fill="#C1C7CD" mask="url(#path-30-inside-1_94_1449)"/>
<path d="M807.516 548.539H804.477V547.312H807.516C808.104 547.312 808.581 547.219 808.945 547.031C809.31 546.844 809.576 546.583 809.742 546.25C809.914 545.917 810 545.536 810 545.109C810 544.719 809.914 544.352 809.742 544.008C809.576 543.664 809.31 543.388 808.945 543.18C808.581 542.966 808.104 542.859 807.516 542.859H804.828V553H803.32V541.625H807.516C808.375 541.625 809.102 541.773 809.695 542.07C810.289 542.367 810.74 542.779 811.047 543.305C811.354 543.826 811.508 544.422 811.508 545.094C811.508 545.823 811.354 546.445 811.047 546.961C810.74 547.477 810.289 547.87 809.695 548.141C809.102 548.406 808.375 548.539 807.516 548.539ZM814.766 541V553H813.312V541H814.766ZM822.07 551.555V547.203C822.07 546.87 822.003 546.581 821.867 546.336C821.737 546.086 821.539 545.893 821.273 545.758C821.008 545.622 820.68 545.555 820.289 545.555C819.924 545.555 819.604 545.617 819.328 545.742C819.057 545.867 818.844 546.031 818.688 546.234C818.536 546.438 818.461 546.656 818.461 546.891H817.016C817.016 546.589 817.094 546.289 817.25 545.992C817.406 545.695 817.63 545.427 817.922 545.188C818.219 544.943 818.573 544.75 818.984 544.609C819.401 544.464 819.865 544.391 820.375 544.391C820.99 544.391 821.531 544.495 822 544.703C822.474 544.911 822.844 545.227 823.109 545.648C823.38 546.065 823.516 546.589 823.516 547.219V551.156C823.516 551.438 823.539 551.737 823.586 552.055C823.638 552.372 823.714 552.646 823.812 552.875V553H822.305C822.232 552.833 822.174 552.612 822.133 552.336C822.091 552.055 822.07 551.794 822.07 551.555ZM822.32 547.875L822.336 548.891H820.875C820.464 548.891 820.096 548.924 819.773 548.992C819.451 549.055 819.18 549.151 818.961 549.281C818.742 549.411 818.576 549.576 818.461 549.773C818.346 549.966 818.289 550.193 818.289 550.453C818.289 550.719 818.349 550.961 818.469 551.18C818.589 551.398 818.768 551.573 819.008 551.703C819.253 551.828 819.552 551.891 819.906 551.891C820.349 551.891 820.74 551.797 821.078 551.609C821.417 551.422 821.685 551.193 821.883 550.922C822.086 550.651 822.195 550.388 822.211 550.133L822.828 550.828C822.792 551.047 822.693 551.289 822.531 551.555C822.37 551.82 822.154 552.076 821.883 552.32C821.617 552.56 821.299 552.76 820.93 552.922C820.565 553.078 820.154 553.156 819.695 553.156C819.122 553.156 818.62 553.044 818.188 552.82C817.76 552.596 817.427 552.297 817.188 551.922C816.953 551.542 816.836 551.117 816.836 550.648C816.836 550.195 816.924 549.797 817.102 549.453C817.279 549.104 817.534 548.815 817.867 548.586C818.201 548.352 818.602 548.174 819.07 548.055C819.539 547.935 820.062 547.875 820.641 547.875H822.32ZM829.172 551.969C829.516 551.969 829.833 551.898 830.125 551.758C830.417 551.617 830.656 551.424 830.844 551.18C831.031 550.93 831.138 550.646 831.164 550.328H832.539C832.513 550.828 832.344 551.294 832.031 551.727C831.724 552.154 831.32 552.5 830.82 552.766C830.32 553.026 829.771 553.156 829.172 553.156C828.536 553.156 827.982 553.044 827.508 552.82C827.039 552.596 826.648 552.289 826.336 551.898C826.029 551.508 825.797 551.06 825.641 550.555C825.49 550.044 825.414 549.505 825.414 548.938V548.609C825.414 548.042 825.49 547.505 825.641 547C825.797 546.49 826.029 546.039 826.336 545.648C826.648 545.258 827.039 544.951 827.508 544.727C827.982 544.503 828.536 544.391 829.172 544.391C829.833 544.391 830.411 544.526 830.906 544.797C831.401 545.062 831.789 545.427 832.07 545.891C832.357 546.349 832.513 546.87 832.539 547.453H831.164C831.138 547.104 831.039 546.789 830.867 546.508C830.701 546.227 830.471 546.003 830.18 545.836C829.893 545.664 829.557 545.578 829.172 545.578C828.729 545.578 828.357 545.667 828.055 545.844C827.758 546.016 827.521 546.25 827.344 546.547C827.172 546.839 827.047 547.164 826.969 547.523C826.896 547.878 826.859 548.24 826.859 548.609V548.938C826.859 549.307 826.896 549.672 826.969 550.031C827.042 550.391 827.164 550.716 827.336 551.008C827.513 551.299 827.75 551.534 828.047 551.711C828.349 551.883 828.724 551.969 829.172 551.969ZM837.672 553.156C837.083 553.156 836.549 553.057 836.07 552.859C835.596 552.656 835.188 552.372 834.844 552.008C834.505 551.643 834.245 551.211 834.062 550.711C833.88 550.211 833.789 549.664 833.789 549.07V548.742C833.789 548.055 833.891 547.443 834.094 546.906C834.297 546.365 834.573 545.906 834.922 545.531C835.271 545.156 835.667 544.872 836.109 544.68C836.552 544.487 837.01 544.391 837.484 544.391C838.089 544.391 838.609 544.495 839.047 544.703C839.49 544.911 839.852 545.203 840.133 545.578C840.414 545.948 840.622 546.385 840.758 546.891C840.893 547.391 840.961 547.938 840.961 548.531V549.18H834.648V548H839.516V547.891C839.495 547.516 839.417 547.151 839.281 546.797C839.151 546.443 838.943 546.151 838.656 545.922C838.37 545.693 837.979 545.578 837.484 545.578C837.156 545.578 836.854 545.648 836.578 545.789C836.302 545.924 836.065 546.128 835.867 546.398C835.669 546.669 835.516 547 835.406 547.391C835.297 547.781 835.242 548.232 835.242 548.742V549.07C835.242 549.471 835.297 549.849 835.406 550.203C835.521 550.552 835.685 550.859 835.898 551.125C836.117 551.391 836.38 551.599 836.688 551.75C837 551.901 837.354 551.977 837.75 551.977C838.26 551.977 838.693 551.872 839.047 551.664C839.401 551.456 839.711 551.177 839.977 550.828L840.852 551.523C840.669 551.799 840.438 552.062 840.156 552.312C839.875 552.562 839.529 552.766 839.117 552.922C838.711 553.078 838.229 553.156 837.672 553.156ZM844.094 541V553H842.648V541H844.094ZM843.75 548.453L843.148 548.43C843.154 547.852 843.24 547.318 843.406 546.828C843.573 546.333 843.807 545.904 844.109 545.539C844.411 545.174 844.771 544.893 845.188 544.695C845.609 544.492 846.076 544.391 846.586 544.391C847.003 544.391 847.378 544.448 847.711 544.562C848.044 544.672 848.328 544.849 848.562 545.094C848.802 545.339 848.984 545.656 849.109 546.047C849.234 546.432 849.297 546.904 849.297 547.461V553H847.844V547.445C847.844 547.003 847.779 546.648 847.648 546.383C847.518 546.112 847.328 545.917 847.078 545.797C846.828 545.672 846.521 545.609 846.156 545.609C845.797 545.609 845.469 545.685 845.172 545.836C844.88 545.987 844.628 546.195 844.414 546.461C844.206 546.727 844.042 547.031 843.922 547.375C843.807 547.714 843.75 548.073 843.75 548.453ZM851.078 548.867V548.688C851.078 548.078 851.167 547.513 851.344 546.992C851.521 546.466 851.776 546.01 852.109 545.625C852.443 545.234 852.846 544.932 853.32 544.719C853.794 544.5 854.326 544.391 854.914 544.391C855.508 544.391 856.042 544.5 856.516 544.719C856.995 544.932 857.401 545.234 857.734 545.625C858.073 546.01 858.331 546.466 858.508 546.992C858.685 547.513 858.773 548.078 858.773 548.688V548.867C858.773 549.477 858.685 550.042 858.508 550.562C858.331 551.083 858.073 551.539 857.734 551.93C857.401 552.315 856.997 552.617 856.523 552.836C856.055 553.049 855.523 553.156 854.93 553.156C854.336 553.156 853.802 553.049 853.328 552.836C852.854 552.617 852.448 552.315 852.109 551.93C851.776 551.539 851.521 551.083 851.344 550.562C851.167 550.042 851.078 549.477 851.078 548.867ZM852.523 548.688V548.867C852.523 549.289 852.573 549.688 852.672 550.062C852.771 550.432 852.919 550.76 853.117 551.047C853.32 551.333 853.573 551.56 853.875 551.727C854.177 551.888 854.529 551.969 854.93 551.969C855.326 551.969 855.672 551.888 855.969 551.727C856.271 551.56 856.521 551.333 856.719 551.047C856.917 550.76 857.065 550.432 857.164 550.062C857.268 549.688 857.32 549.289 857.32 548.867V548.688C857.32 548.271 857.268 547.878 857.164 547.508C857.065 547.133 856.914 546.802 856.711 546.516C856.513 546.224 856.263 545.995 855.961 545.828C855.664 545.661 855.315 545.578 854.914 545.578C854.518 545.578 854.169 545.661 853.867 545.828C853.57 545.995 853.32 546.224 853.117 546.516C852.919 546.802 852.771 547.133 852.672 547.508C852.573 547.878 852.523 548.271 852.523 548.688ZM862.156 541V553H860.703V541H862.156ZM869.805 551.359V541H871.258V553H869.93L869.805 551.359ZM864.117 548.867V548.703C864.117 548.057 864.195 547.471 864.352 546.945C864.513 546.414 864.74 545.958 865.031 545.578C865.328 545.198 865.68 544.906 866.086 544.703C866.497 544.495 866.956 544.391 867.461 544.391C867.992 544.391 868.456 544.484 868.852 544.672C869.253 544.854 869.591 545.122 869.867 545.477C870.148 545.826 870.37 546.247 870.531 546.742C870.693 547.237 870.805 547.797 870.867 548.422V549.141C870.81 549.76 870.698 550.318 870.531 550.812C870.37 551.307 870.148 551.729 869.867 552.078C869.591 552.427 869.253 552.695 868.852 552.883C868.451 553.065 867.982 553.156 867.445 553.156C866.951 553.156 866.497 553.049 866.086 552.836C865.68 552.622 865.328 552.323 865.031 551.938C864.74 551.552 864.513 551.099 864.352 550.578C864.195 550.052 864.117 549.482 864.117 548.867ZM865.57 548.703V548.867C865.57 549.289 865.612 549.685 865.695 550.055C865.784 550.424 865.919 550.75 866.102 551.031C866.284 551.312 866.516 551.534 866.797 551.695C867.078 551.852 867.414 551.93 867.805 551.93C868.284 551.93 868.677 551.828 868.984 551.625C869.297 551.422 869.547 551.154 869.734 550.82C869.922 550.487 870.068 550.125 870.172 549.734V547.852C870.109 547.565 870.018 547.289 869.898 547.023C869.784 546.753 869.633 546.513 869.445 546.305C869.263 546.091 869.036 545.922 868.766 545.797C868.5 545.672 868.185 545.609 867.82 545.609C867.424 545.609 867.083 545.693 866.797 545.859C866.516 546.021 866.284 546.245 866.102 546.531C865.919 546.812 865.784 547.141 865.695 547.516C865.612 547.885 865.57 548.281 865.57 548.703ZM877.016 553.156C876.427 553.156 875.893 553.057 875.414 552.859C874.94 552.656 874.531 552.372 874.188 552.008C873.849 551.643 873.589 551.211 873.406 550.711C873.224 550.211 873.133 549.664 873.133 549.07V548.742C873.133 548.055 873.234 547.443 873.438 546.906C873.641 546.365 873.917 545.906 874.266 545.531C874.615 545.156 875.01 544.872 875.453 544.68C875.896 544.487 876.354 544.391 876.828 544.391C877.432 544.391 877.953 544.495 878.391 544.703C878.833 544.911 879.195 545.203 879.477 545.578C879.758 545.948 879.966 546.385 880.102 546.891C880.237 547.391 880.305 547.938 880.305 548.531V549.18H873.992V548H878.859V547.891C878.839 547.516 878.76 547.151 878.625 546.797C878.495 546.443 878.286 546.151 878 545.922C877.714 545.693 877.323 545.578 876.828 545.578C876.5 545.578 876.198 545.648 875.922 545.789C875.646 545.924 875.409 546.128 875.211 546.398C875.013 546.669 874.859 547 874.75 547.391C874.641 547.781 874.586 548.232 874.586 548.742V549.07C874.586 549.471 874.641 549.849 874.75 550.203C874.865 550.552 875.029 550.859 875.242 551.125C875.461 551.391 875.724 551.599 876.031 551.75C876.344 551.901 876.698 551.977 877.094 551.977C877.604 551.977 878.036 551.872 878.391 551.664C878.745 551.456 879.055 551.177 879.32 550.828L880.195 551.523C880.013 551.799 879.781 552.062 879.5 552.312C879.219 552.562 878.872 552.766 878.461 552.922C878.055 553.078 877.573 553.156 877.016 553.156ZM883.438 545.875V553H881.992V544.547H883.398L883.438 545.875ZM886.078 544.5L886.07 545.844C885.951 545.818 885.836 545.802 885.727 545.797C885.622 545.786 885.503 545.781 885.367 545.781C885.034 545.781 884.74 545.833 884.484 545.938C884.229 546.042 884.013 546.188 883.836 546.375C883.659 546.562 883.518 546.786 883.414 547.047C883.315 547.302 883.25 547.583 883.219 547.891L882.812 548.125C882.812 547.615 882.862 547.135 882.961 546.688C883.065 546.24 883.224 545.844 883.438 545.5C883.651 545.151 883.922 544.88 884.25 544.688C884.583 544.49 884.979 544.391 885.438 544.391C885.542 544.391 885.661 544.404 885.797 544.43C885.932 544.451 886.026 544.474 886.078 544.5Z" fill="#697077"/>
<rect x="787" y="589" width="164" height="46" stroke="#0F62FE" stroke-width="2"/>
<path d="M850.875 613.297H852.828C852.766 614.042 852.557 614.706 852.203 615.289C851.849 615.867 851.352 616.323 850.711 616.656C850.07 616.99 849.292 617.156 848.375 617.156C847.672 617.156 847.039 617.031 846.477 616.781C845.914 616.526 845.432 616.167 845.031 615.703C844.63 615.234 844.323 614.669 844.109 614.008C843.901 613.346 843.797 612.607 843.797 611.789V610.844C843.797 610.026 843.904 609.286 844.117 608.625C844.336 607.964 844.648 607.398 845.055 606.93C845.461 606.456 845.948 606.094 846.516 605.844C847.089 605.594 847.732 605.469 848.445 605.469C849.352 605.469 850.117 605.635 850.742 605.969C851.367 606.302 851.852 606.763 852.195 607.352C852.544 607.94 852.758 608.615 852.836 609.375H850.883C850.831 608.885 850.716 608.466 850.539 608.117C850.367 607.768 850.112 607.503 849.773 607.32C849.435 607.133 848.992 607.039 848.445 607.039C847.997 607.039 847.607 607.122 847.273 607.289C846.94 607.456 846.661 607.701 846.438 608.023C846.214 608.346 846.044 608.745 845.93 609.219C845.82 609.688 845.766 610.224 845.766 610.828V611.789C845.766 612.362 845.815 612.883 845.914 613.352C846.018 613.815 846.174 614.214 846.383 614.547C846.596 614.88 846.867 615.138 847.195 615.32C847.523 615.503 847.917 615.594 848.375 615.594C848.932 615.594 849.383 615.505 849.727 615.328C850.076 615.151 850.339 614.893 850.516 614.555C850.698 614.211 850.818 613.792 850.875 613.297ZM859.688 615.305V611.273C859.688 610.971 859.633 610.711 859.523 610.492C859.414 610.273 859.247 610.104 859.023 609.984C858.805 609.865 858.529 609.805 858.195 609.805C857.888 609.805 857.622 609.857 857.398 609.961C857.174 610.065 857 610.206 856.875 610.383C856.75 610.56 856.688 610.76 856.688 610.984H854.812C854.812 610.651 854.893 610.328 855.055 610.016C855.216 609.703 855.451 609.424 855.758 609.18C856.065 608.935 856.432 608.742 856.859 608.602C857.286 608.461 857.766 608.391 858.297 608.391C858.932 608.391 859.495 608.497 859.984 608.711C860.479 608.924 860.867 609.247 861.148 609.68C861.435 610.107 861.578 610.643 861.578 611.289V615.047C861.578 615.432 861.604 615.779 861.656 616.086C861.714 616.388 861.794 616.651 861.898 616.875V617H859.969C859.88 616.797 859.81 616.539 859.758 616.227C859.711 615.909 859.688 615.602 859.688 615.305ZM859.961 611.859L859.977 613.023H858.625C858.276 613.023 857.969 613.057 857.703 613.125C857.438 613.188 857.216 613.281 857.039 613.406C856.862 613.531 856.729 613.682 856.641 613.859C856.552 614.036 856.508 614.237 856.508 614.461C856.508 614.685 856.56 614.891 856.664 615.078C856.768 615.26 856.919 615.404 857.117 615.508C857.32 615.612 857.565 615.664 857.852 615.664C858.237 615.664 858.573 615.586 858.859 615.43C859.151 615.268 859.38 615.073 859.547 614.844C859.714 614.609 859.802 614.388 859.812 614.18L860.422 615.016C860.359 615.229 860.253 615.458 860.102 615.703C859.951 615.948 859.753 616.182 859.508 616.406C859.268 616.625 858.979 616.805 858.641 616.945C858.307 617.086 857.922 617.156 857.484 617.156C856.932 617.156 856.44 617.047 856.008 616.828C855.576 616.604 855.237 616.305 854.992 615.93C854.747 615.549 854.625 615.12 854.625 614.641C854.625 614.193 854.708 613.797 854.875 613.453C855.047 613.104 855.297 612.812 855.625 612.578C855.958 612.344 856.365 612.167 856.844 612.047C857.323 611.922 857.87 611.859 858.484 611.859H859.961ZM865.914 610.352V617H864.031V608.547H865.805L865.914 610.352ZM865.578 612.461L864.969 612.453C864.974 611.854 865.057 611.305 865.219 610.805C865.385 610.305 865.615 609.875 865.906 609.516C866.203 609.156 866.557 608.88 866.969 608.688C867.38 608.49 867.839 608.391 868.344 608.391C868.75 608.391 869.117 608.448 869.445 608.562C869.779 608.672 870.062 608.852 870.297 609.102C870.536 609.352 870.719 609.677 870.844 610.078C870.969 610.474 871.031 610.961 871.031 611.539V617H869.141V611.531C869.141 611.125 869.081 610.805 868.961 610.57C868.846 610.331 868.677 610.161 868.453 610.062C868.234 609.958 867.961 609.906 867.633 609.906C867.31 609.906 867.021 609.974 866.766 610.109C866.51 610.245 866.294 610.43 866.117 610.664C865.945 610.898 865.812 611.169 865.719 611.477C865.625 611.784 865.578 612.112 865.578 612.461ZM876.906 615.656C877.214 615.656 877.49 615.596 877.734 615.477C877.984 615.352 878.185 615.18 878.336 614.961C878.492 614.742 878.578 614.49 878.594 614.203H880.367C880.357 614.75 880.195 615.247 879.883 615.695C879.57 616.143 879.156 616.5 878.641 616.766C878.125 617.026 877.555 617.156 876.93 617.156C876.284 617.156 875.721 617.047 875.242 616.828C874.763 616.604 874.365 616.297 874.047 615.906C873.729 615.516 873.49 615.065 873.328 614.555C873.172 614.044 873.094 613.497 873.094 612.914V612.641C873.094 612.057 873.172 611.51 873.328 611C873.49 610.484 873.729 610.031 874.047 609.641C874.365 609.25 874.763 608.945 875.242 608.727C875.721 608.503 876.281 608.391 876.922 608.391C877.599 608.391 878.193 608.526 878.703 608.797C879.214 609.062 879.615 609.435 879.906 609.914C880.203 610.388 880.357 610.94 880.367 611.57H878.594C878.578 611.258 878.5 610.977 878.359 610.727C878.224 610.471 878.031 610.268 877.781 610.117C877.536 609.966 877.242 609.891 876.898 609.891C876.518 609.891 876.203 609.969 875.953 610.125C875.703 610.276 875.508 610.484 875.367 610.75C875.227 611.01 875.125 611.305 875.062 611.633C875.005 611.956 874.977 612.292 874.977 612.641V612.914C874.977 613.263 875.005 613.602 875.062 613.93C875.12 614.258 875.219 614.552 875.359 614.812C875.505 615.068 875.703 615.273 875.953 615.43C876.203 615.581 876.521 615.656 876.906 615.656ZM886.039 617.156C885.414 617.156 884.849 617.055 884.344 616.852C883.844 616.643 883.417 616.354 883.062 615.984C882.714 615.615 882.445 615.18 882.258 614.68C882.07 614.18 881.977 613.641 881.977 613.062V612.75C881.977 612.089 882.073 611.49 882.266 610.953C882.458 610.417 882.727 609.958 883.07 609.578C883.414 609.193 883.82 608.898 884.289 608.695C884.758 608.492 885.266 608.391 885.812 608.391C886.417 608.391 886.945 608.492 887.398 608.695C887.852 608.898 888.227 609.185 888.523 609.555C888.826 609.919 889.049 610.354 889.195 610.859C889.346 611.365 889.422 611.922 889.422 612.531V613.336H882.891V611.984H887.562V611.836C887.552 611.497 887.484 611.18 887.359 610.883C887.24 610.586 887.055 610.346 886.805 610.164C886.555 609.982 886.221 609.891 885.805 609.891C885.492 609.891 885.214 609.958 884.969 610.094C884.729 610.224 884.529 610.414 884.367 610.664C884.206 610.914 884.081 611.216 883.992 611.57C883.909 611.919 883.867 612.312 883.867 612.75V613.062C883.867 613.432 883.917 613.776 884.016 614.094C884.12 614.406 884.271 614.68 884.469 614.914C884.667 615.148 884.906 615.333 885.188 615.469C885.469 615.599 885.789 615.664 886.148 615.664C886.602 615.664 887.005 615.573 887.359 615.391C887.714 615.208 888.021 614.951 888.281 614.617L889.273 615.578C889.091 615.844 888.854 616.099 888.562 616.344C888.271 616.583 887.914 616.779 887.492 616.93C887.076 617.081 886.591 617.156 886.039 617.156ZM893.406 605V617H891.516V605H893.406Z" fill="#0F62FE"/>
<rect x="969" y="589" width="164" height="46" fill="#0F62FE"/>
<rect x="969" y="589" width="164" height="46" stroke="#0F62FE" stroke-width="2"/>
<path d="M1004.38 613.297H1006.33C1006.27 614.042 1006.06 614.706 1005.7 615.289C1005.35 615.867 1004.85 616.323 1004.21 616.656C1003.57 616.99 1002.79 617.156 1001.88 617.156C1001.17 617.156 1000.54 617.031 999.977 616.781C999.414 616.526 998.932 616.167 998.531 615.703C998.13 615.234 997.823 614.669 997.609 614.008C997.401 613.346 997.297 612.607 997.297 611.789V610.844C997.297 610.026 997.404 609.286 997.617 608.625C997.836 607.964 998.148 607.398 998.555 606.93C998.961 606.456 999.448 606.094 1000.02 605.844C1000.59 605.594 1001.23 605.469 1001.95 605.469C1002.85 605.469 1003.62 605.635 1004.24 605.969C1004.87 606.302 1005.35 606.763 1005.7 607.352C1006.04 607.94 1006.26 608.615 1006.34 609.375H1004.38C1004.33 608.885 1004.22 608.466 1004.04 608.117C1003.87 607.768 1003.61 607.503 1003.27 607.32C1002.93 607.133 1002.49 607.039 1001.95 607.039C1001.5 607.039 1001.11 607.122 1000.77 607.289C1000.44 607.456 1000.16 607.701 999.938 608.023C999.714 608.346 999.544 608.745 999.43 609.219C999.32 609.688 999.266 610.224 999.266 610.828V611.789C999.266 612.362 999.315 612.883 999.414 613.352C999.518 613.815 999.674 614.214 999.883 614.547C1000.1 614.88 1000.37 615.138 1000.7 615.32C1001.02 615.503 1001.42 615.594 1001.88 615.594C1002.43 615.594 1002.88 615.505 1003.23 615.328C1003.58 615.151 1003.84 614.893 1004.02 614.555C1004.2 614.211 1004.32 613.792 1004.38 613.297ZM1010.31 610.156V617H1008.43V608.547H1010.23L1010.31 610.156ZM1012.9 608.492L1012.88 610.242C1012.77 610.221 1012.64 610.206 1012.51 610.195C1012.38 610.185 1012.25 610.18 1012.12 610.18C1011.79 610.18 1011.51 610.227 1011.27 610.32C1011.02 610.409 1010.82 610.539 1010.65 610.711C1010.49 610.878 1010.36 611.081 1010.27 611.32C1010.18 611.56 1010.13 611.828 1010.12 612.125L1009.69 612.156C1009.69 611.625 1009.74 611.133 1009.84 610.68C1009.95 610.227 1010.1 609.828 1010.31 609.484C1010.53 609.141 1010.79 608.872 1011.11 608.68C1011.43 608.487 1011.8 608.391 1012.23 608.391C1012.34 608.391 1012.46 608.401 1012.59 608.422C1012.73 608.443 1012.83 608.466 1012.9 608.492ZM1018.15 617.156C1017.52 617.156 1016.96 617.055 1016.45 616.852C1015.95 616.643 1015.53 616.354 1015.17 615.984C1014.82 615.615 1014.55 615.18 1014.37 614.68C1014.18 614.18 1014.09 613.641 1014.09 613.062V612.75C1014.09 612.089 1014.18 611.49 1014.38 610.953C1014.57 610.417 1014.84 609.958 1015.18 609.578C1015.52 609.193 1015.93 608.898 1016.4 608.695C1016.87 608.492 1017.38 608.391 1017.92 608.391C1018.53 608.391 1019.05 608.492 1019.51 608.695C1019.96 608.898 1020.34 609.185 1020.63 609.555C1020.93 609.919 1021.16 610.354 1021.3 610.859C1021.46 611.365 1021.53 611.922 1021.53 612.531V613.336H1015V611.984H1019.67V611.836C1019.66 611.497 1019.59 611.18 1019.47 610.883C1019.35 610.586 1019.16 610.346 1018.91 610.164C1018.66 609.982 1018.33 609.891 1017.91 609.891C1017.6 609.891 1017.32 609.958 1017.08 610.094C1016.84 610.224 1016.64 610.414 1016.48 610.664C1016.32 610.914 1016.19 611.216 1016.1 611.57C1016.02 611.919 1015.98 612.312 1015.98 612.75V613.062C1015.98 613.432 1016.03 613.776 1016.12 614.094C1016.23 614.406 1016.38 614.68 1016.58 614.914C1016.78 615.148 1017.02 615.333 1017.3 615.469C1017.58 615.599 1017.9 615.664 1018.26 615.664C1018.71 615.664 1019.11 615.573 1019.47 615.391C1019.82 615.208 1020.13 614.951 1020.39 614.617L1021.38 615.578C1021.2 615.844 1020.96 616.099 1020.67 616.344C1020.38 616.583 1020.02 616.779 1019.6 616.93C1019.18 617.081 1018.7 617.156 1018.15 617.156ZM1028.27 615.305V611.273C1028.27 610.971 1028.21 610.711 1028.1 610.492C1027.99 610.273 1027.83 610.104 1027.6 609.984C1027.38 609.865 1027.11 609.805 1026.77 609.805C1026.47 609.805 1026.2 609.857 1025.98 609.961C1025.75 610.065 1025.58 610.206 1025.45 610.383C1025.33 610.56 1025.27 610.76 1025.27 610.984H1023.39C1023.39 610.651 1023.47 610.328 1023.63 610.016C1023.79 609.703 1024.03 609.424 1024.34 609.18C1024.64 608.935 1025.01 608.742 1025.44 608.602C1025.86 608.461 1026.34 608.391 1026.88 608.391C1027.51 608.391 1028.07 608.497 1028.56 608.711C1029.06 608.924 1029.45 609.247 1029.73 609.68C1030.01 610.107 1030.16 610.643 1030.16 611.289V615.047C1030.16 615.432 1030.18 615.779 1030.23 616.086C1030.29 616.388 1030.37 616.651 1030.48 616.875V617H1028.55C1028.46 616.797 1028.39 616.539 1028.34 616.227C1028.29 615.909 1028.27 615.602 1028.27 615.305ZM1028.54 611.859L1028.55 613.023H1027.2C1026.85 613.023 1026.55 613.057 1026.28 613.125C1026.02 613.188 1025.79 613.281 1025.62 613.406C1025.44 613.531 1025.31 613.682 1025.22 613.859C1025.13 614.036 1025.09 614.237 1025.09 614.461C1025.09 614.685 1025.14 614.891 1025.24 615.078C1025.35 615.26 1025.5 615.404 1025.7 615.508C1025.9 615.612 1026.14 615.664 1026.43 615.664C1026.82 615.664 1027.15 615.586 1027.44 615.43C1027.73 615.268 1027.96 615.073 1028.12 614.844C1028.29 614.609 1028.38 614.388 1028.39 614.18L1029 615.016C1028.94 615.229 1028.83 615.458 1028.68 615.703C1028.53 615.948 1028.33 616.182 1028.09 616.406C1027.85 616.625 1027.56 616.805 1027.22 616.945C1026.89 617.086 1026.5 617.156 1026.06 617.156C1025.51 617.156 1025.02 617.047 1024.59 616.828C1024.15 616.604 1023.82 616.305 1023.57 615.93C1023.33 615.549 1023.2 615.12 1023.2 614.641C1023.2 614.193 1023.29 613.797 1023.45 613.453C1023.62 613.104 1023.88 612.812 1024.2 612.578C1024.54 612.344 1024.94 612.167 1025.42 612.047C1025.9 611.922 1026.45 611.859 1027.06 611.859H1028.54ZM1036.5 608.547V609.922H1031.73V608.547H1036.5ZM1033.11 606.477H1034.99V614.664C1034.99 614.924 1035.03 615.125 1035.1 615.266C1035.18 615.401 1035.29 615.492 1035.42 615.539C1035.56 615.586 1035.72 615.609 1035.9 615.609C1036.03 615.609 1036.15 615.602 1036.27 615.586C1036.39 615.57 1036.49 615.555 1036.56 615.539L1036.57 616.977C1036.41 617.023 1036.23 617.065 1036.02 617.102C1035.82 617.138 1035.59 617.156 1035.32 617.156C1034.89 617.156 1034.51 617.081 1034.17 616.93C1033.84 616.773 1033.58 616.521 1033.39 616.172C1033.2 615.823 1033.11 615.359 1033.11 614.781V606.477ZM1042.18 617.156C1041.55 617.156 1040.99 617.055 1040.48 616.852C1039.98 616.643 1039.56 616.354 1039.2 615.984C1038.85 615.615 1038.59 615.18 1038.4 614.68C1038.21 614.18 1038.12 613.641 1038.12 613.062V612.75C1038.12 612.089 1038.21 611.49 1038.41 610.953C1038.6 610.417 1038.87 609.958 1039.21 609.578C1039.55 609.193 1039.96 608.898 1040.43 608.695C1040.9 608.492 1041.41 608.391 1041.95 608.391C1042.56 608.391 1043.09 608.492 1043.54 608.695C1043.99 608.898 1044.37 609.185 1044.66 609.555C1044.97 609.919 1045.19 610.354 1045.34 610.859C1045.49 611.365 1045.56 611.922 1045.56 612.531V613.336H1039.03V611.984H1043.7V611.836C1043.69 611.497 1043.62 611.18 1043.5 610.883C1043.38 610.586 1043.2 610.346 1042.95 610.164C1042.7 609.982 1042.36 609.891 1041.95 609.891C1041.63 609.891 1041.35 609.958 1041.11 610.094C1040.87 610.224 1040.67 610.414 1040.51 610.664C1040.35 610.914 1040.22 611.216 1040.13 611.57C1040.05 611.919 1040.01 612.312 1040.01 612.75V613.062C1040.01 613.432 1040.06 613.776 1040.16 614.094C1040.26 614.406 1040.41 614.68 1040.61 614.914C1040.81 615.148 1041.05 615.333 1041.33 615.469C1041.61 615.599 1041.93 615.664 1042.29 615.664C1042.74 615.664 1043.15 615.573 1043.5 615.391C1043.85 615.208 1044.16 614.951 1044.42 614.617L1045.41 615.578C1045.23 615.844 1044.99 616.099 1044.7 616.344C1044.41 616.583 1044.05 616.779 1043.63 616.93C1043.22 617.081 1042.73 617.156 1042.18 617.156ZM1056.52 612.758H1053.56V611.203H1056.52C1057.04 611.203 1057.46 611.12 1057.77 610.953C1058.09 610.786 1058.32 610.557 1058.47 610.266C1058.62 609.969 1058.7 609.63 1058.7 609.25C1058.7 608.891 1058.62 608.555 1058.47 608.242C1058.32 607.924 1058.09 607.669 1057.77 607.477C1057.46 607.284 1057.04 607.188 1056.52 607.188H1054.16V617H1052.2V605.625H1056.52C1057.4 605.625 1058.15 605.781 1058.77 606.094C1059.39 606.401 1059.86 606.828 1060.18 607.375C1060.5 607.917 1060.66 608.536 1060.66 609.234C1060.66 609.969 1060.5 610.599 1060.18 611.125C1059.86 611.651 1059.39 612.055 1058.77 612.336C1058.15 612.617 1057.4 612.758 1056.52 612.758ZM1064.62 610.156V617H1062.74V608.547H1064.54L1064.62 610.156ZM1067.21 608.492L1067.2 610.242C1067.08 610.221 1066.96 610.206 1066.82 610.195C1066.69 610.185 1066.56 610.18 1066.43 610.18C1066.11 610.18 1065.82 610.227 1065.58 610.32C1065.33 610.409 1065.13 610.539 1064.96 610.711C1064.8 610.878 1064.67 611.081 1064.59 611.32C1064.5 611.56 1064.45 611.828 1064.43 612.125L1064 612.156C1064 611.625 1064.05 611.133 1064.16 610.68C1064.26 610.227 1064.42 609.828 1064.62 609.484C1064.84 609.141 1065.1 608.872 1065.42 608.68C1065.74 608.487 1066.12 608.391 1066.54 608.391C1066.65 608.391 1066.78 608.401 1066.91 608.422C1067.04 608.443 1067.14 608.466 1067.21 608.492ZM1068.33 612.867V612.688C1068.33 612.078 1068.42 611.513 1068.59 610.992C1068.77 610.466 1069.03 610.01 1069.36 609.625C1069.7 609.234 1070.11 608.932 1070.59 608.719C1071.08 608.5 1071.64 608.391 1072.25 608.391C1072.87 608.391 1073.42 608.5 1073.91 608.719C1074.4 608.932 1074.81 609.234 1075.15 609.625C1075.49 610.01 1075.74 610.466 1075.92 610.992C1076.1 611.513 1076.19 612.078 1076.19 612.688V612.867C1076.19 613.477 1076.1 614.042 1075.92 614.562C1075.74 615.083 1075.49 615.539 1075.15 615.93C1074.81 616.315 1074.4 616.617 1073.91 616.836C1073.43 617.049 1072.88 617.156 1072.27 617.156C1071.65 617.156 1071.09 617.049 1070.6 616.836C1070.12 616.617 1069.71 616.315 1069.37 615.93C1069.03 615.539 1068.77 615.083 1068.59 614.562C1068.42 614.042 1068.33 613.477 1068.33 612.867ZM1070.21 612.688V612.867C1070.21 613.247 1070.25 613.607 1070.33 613.945C1070.41 614.284 1070.53 614.581 1070.7 614.836C1070.86 615.091 1071.08 615.292 1071.34 615.438C1071.6 615.583 1071.91 615.656 1072.27 615.656C1072.61 615.656 1072.92 615.583 1073.17 615.438C1073.43 615.292 1073.65 615.091 1073.81 614.836C1073.98 614.581 1074.1 614.284 1074.18 613.945C1074.26 613.607 1074.3 613.247 1074.3 612.867V612.688C1074.3 612.312 1074.26 611.958 1074.18 611.625C1074.1 611.286 1073.98 610.987 1073.8 610.727C1073.64 610.466 1073.42 610.263 1073.16 610.117C1072.91 609.966 1072.6 609.891 1072.25 609.891C1071.9 609.891 1071.59 609.966 1071.33 610.117C1071.07 610.263 1070.86 610.466 1070.7 610.727C1070.53 610.987 1070.41 611.286 1070.33 611.625C1070.25 611.958 1070.21 612.312 1070.21 612.688ZM1078.36 608.547H1080.25V617.734C1080.25 618.312 1080.15 618.799 1079.95 619.195C1079.76 619.596 1079.46 619.898 1079.08 620.102C1078.69 620.31 1078.22 620.414 1077.66 620.414C1077.5 620.414 1077.33 620.401 1077.15 620.375C1076.97 620.354 1076.79 620.323 1076.63 620.281L1076.64 618.812C1076.75 618.833 1076.87 618.849 1076.99 618.859C1077.11 618.875 1077.23 618.883 1077.34 618.883C1077.56 618.883 1077.75 618.844 1077.9 618.766C1078.05 618.688 1078.16 618.565 1078.24 618.398C1078.32 618.232 1078.36 618.01 1078.36 617.734V608.547ZM1078.2 606.328C1078.2 606.042 1078.29 605.805 1078.48 605.617C1078.68 605.424 1078.94 605.328 1079.27 605.328C1079.61 605.328 1079.88 605.424 1080.06 605.617C1080.26 605.805 1080.35 606.042 1080.35 606.328C1080.35 606.609 1080.26 606.844 1080.06 607.031C1079.88 607.219 1079.61 607.312 1079.27 607.312C1078.94 607.312 1078.68 607.219 1078.48 607.031C1078.29 606.844 1078.2 606.609 1078.2 606.328ZM1086.51 617.156C1085.88 617.156 1085.32 617.055 1084.81 616.852C1084.31 616.643 1083.89 616.354 1083.53 615.984C1083.18 615.615 1082.91 615.18 1082.73 614.68C1082.54 614.18 1082.45 613.641 1082.45 613.062V612.75C1082.45 612.089 1082.54 611.49 1082.73 610.953C1082.93 610.417 1083.2 609.958 1083.54 609.578C1083.88 609.193 1084.29 608.898 1084.76 608.695C1085.23 608.492 1085.73 608.391 1086.28 608.391C1086.89 608.391 1087.41 608.492 1087.87 608.695C1088.32 608.898 1088.7 609.185 1088.99 609.555C1089.29 609.919 1089.52 610.354 1089.66 610.859C1089.82 611.365 1089.89 611.922 1089.89 612.531V613.336H1083.36V611.984H1088.03V611.836C1088.02 611.497 1087.95 611.18 1087.83 610.883C1087.71 610.586 1087.52 610.346 1087.27 610.164C1087.02 609.982 1086.69 609.891 1086.27 609.891C1085.96 609.891 1085.68 609.958 1085.44 610.094C1085.2 610.224 1085 610.414 1084.84 610.664C1084.67 610.914 1084.55 611.216 1084.46 611.57C1084.38 611.919 1084.34 612.312 1084.34 612.75V613.062C1084.34 613.432 1084.39 613.776 1084.48 614.094C1084.59 614.406 1084.74 614.68 1084.94 614.914C1085.14 615.148 1085.38 615.333 1085.66 615.469C1085.94 615.599 1086.26 615.664 1086.62 615.664C1087.07 615.664 1087.47 615.573 1087.83 615.391C1088.18 615.208 1088.49 614.951 1088.75 614.617L1089.74 615.578C1089.56 615.844 1089.32 616.099 1089.03 616.344C1088.74 616.583 1088.38 616.779 1087.96 616.93C1087.54 617.081 1087.06 617.156 1086.51 617.156ZM1095.31 615.656C1095.62 615.656 1095.9 615.596 1096.14 615.477C1096.39 615.352 1096.59 615.18 1096.74 614.961C1096.9 614.742 1096.98 614.49 1097 614.203H1098.77C1098.76 614.75 1098.6 615.247 1098.29 615.695C1097.98 616.143 1097.56 616.5 1097.05 616.766C1096.53 617.026 1095.96 617.156 1095.34 617.156C1094.69 617.156 1094.13 617.047 1093.65 616.828C1093.17 616.604 1092.77 616.297 1092.45 615.906C1092.14 615.516 1091.9 615.065 1091.73 614.555C1091.58 614.044 1091.5 613.497 1091.5 612.914V612.641C1091.5 612.057 1091.58 611.51 1091.73 611C1091.9 610.484 1092.14 610.031 1092.45 609.641C1092.77 609.25 1093.17 608.945 1093.65 608.727C1094.13 608.503 1094.69 608.391 1095.33 608.391C1096.01 608.391 1096.6 608.526 1097.11 608.797C1097.62 609.062 1098.02 609.435 1098.31 609.914C1098.61 610.388 1098.76 610.94 1098.77 611.57H1097C1096.98 611.258 1096.91 610.977 1096.77 610.727C1096.63 610.471 1096.44 610.268 1096.19 610.117C1095.94 609.966 1095.65 609.891 1095.3 609.891C1094.92 609.891 1094.61 609.969 1094.36 610.125C1094.11 610.276 1093.91 610.484 1093.77 610.75C1093.63 611.01 1093.53 611.305 1093.47 611.633C1093.41 611.956 1093.38 612.292 1093.38 612.641V612.914C1093.38 613.263 1093.41 613.602 1093.47 613.93C1093.53 614.258 1093.62 614.552 1093.77 614.812C1093.91 615.068 1094.11 615.273 1094.36 615.43C1094.61 615.581 1094.93 615.656 1095.31 615.656ZM1104.59 608.547V609.922H1099.83V608.547H1104.59ZM1101.2 606.477H1103.09V614.664C1103.09 614.924 1103.12 615.125 1103.2 615.266C1103.27 615.401 1103.38 615.492 1103.52 615.539C1103.65 615.586 1103.81 615.609 1103.99 615.609C1104.12 615.609 1104.25 615.602 1104.37 615.586C1104.49 615.57 1104.58 615.555 1104.66 615.539L1104.66 616.977C1104.51 617.023 1104.33 617.065 1104.12 617.102C1103.91 617.138 1103.68 617.156 1103.41 617.156C1102.98 617.156 1102.6 617.081 1102.27 616.93C1101.93 616.773 1101.67 616.521 1101.48 616.172C1101.3 615.823 1101.2 615.359 1101.2 614.781V606.477Z" fill="white"/>
</g>
<defs>
<clipPath id="clip0_94_1449">
<rect width="1920" height="1080" fill="white"/>
</clipPath>
<clipPath id="clip1_94_1449">
<rect width="49" height="56" fill="white" transform="translate(15 12)"/>
</clipPath>
<clipPath id="clip2_94_1449">
<rect width="120" height="56" fill="white" transform="translate(80 12)"/>
</clipPath>
</defs>
</svg>
